<svg xmlns="http://www.w3.org/2000/svg" viewBox="414.432 83.756 178.435 45.53">
  <defs>
    <style>
      .cls-1 {
        fill: #fff;
      }
    </style>
  </defs>
  <g id="magnetic_2_" transform="translate(414.432 83.756)">
    <g id="Group_1" data-name="Group 1" transform="translate(0 9.474)">
      <path id="Path_1" data-name="Path 1" class="cls-1" d="M31.187,32.6a.9.9,0,0,1-.921.921H28.028a.9.9,0,0,1-.921-.921V15.885c0-3.421-1.447-5-4.342-5A14.97,14.97,0,0,0,17.238,12.2a15.045,15.045,0,0,1,.395,3.684V32.728a.9.9,0,0,1-.921.921h-2.5c-.526,0-.79-.263-.79-.921V15.753q0-2.961-.79-3.948a3.374,3.374,0,0,0-2.763-1.053c-1.447,0-3.29.658-5.79,1.842v19.87a1,1,0,0,1-.263.658,1,1,0,0,1-.658.263H.79q-.79.2-.79-.79V8.516a1,1,0,0,1,.263-.658,1,1,0,0,1,.658-.263H3.29a1,1,0,0,1,.658.263,1,1,0,0,1,.263.658v.921A12.06,12.06,0,0,1,11.053,7.2a5.7,5.7,0,0,1,4.737,1.974,18.382,18.382,0,0,1,7.9-1.974c5.132,0,7.632,2.895,7.632,8.685V32.6Z" transform="translate(0 -7.2)"/>
    </g>
    <g id="Group_2" data-name="Group 2" transform="translate(35.661 9.474)">
      <path id="Path_2" data-name="Path 2" class="cls-1" d="M46.049,32.6a.9.9,0,0,1-.921.921H42.891a.9.9,0,0,1-.921-.921V31.544a14.575,14.575,0,0,1-7.237,2.369A8.41,8.41,0,0,1,29.205,32.2C27.758,31.018,27.1,29.044,27.1,26.28v-.526a6.79,6.79,0,0,1,2.632-5.79c1.711-1.184,4.606-1.842,8.816-1.842H42.1V16.148c0-1.974-.395-3.421-1.184-4.211a5.446,5.446,0,0,0-3.948-1.184,70.473,70.473,0,0,0-7.237.395h-.263a.7.7,0,0,1-.79-.79V8.779c0-.526.395-.79,1.053-.921A45.132,45.132,0,0,1,37.1,7.2c6.185,0,9.211,2.895,9.211,8.816V32.6Zm-4.211-4.079V20.885H38.285c-2.763,0-4.737.395-5.658,1.053-1.053.658-1.447,1.842-1.447,3.553v.526a4.258,4.258,0,0,0,1.053,3.29,4.684,4.684,0,0,0,3.29.921A10.027,10.027,0,0,0,41.838,28.517Z" transform="translate(-27.1 -7.2)"/>
    </g>
    <g id="Group_3" data-name="Group 3" transform="translate(59.084 9.738)">
      <path id="Path_3" data-name="Path 3" class="cls-1" d="M67.139,9.769a.87.87,0,0,1-.79.921l-1.711.395a6.993,6.993,0,0,1,1.579,4.869v.395c0,5.4-3.553,8.027-10.527,8.027a14.323,14.323,0,0,1-5.527-.921,1.779,1.779,0,0,0-1.184,1.579c0,.79.526,1.316,1.447,1.447L57.4,28.323a18.735,18.735,0,0,1,2.763.79c.658.263,1.447.526,2.369.921a6.425,6.425,0,0,1,2.105,1.316,5.9,5.9,0,0,1,1.316,1.711,4.506,4.506,0,0,1,.526,2.369v.395c0,4.869-3.553,7.369-10.79,7.369-3.684,0-6.316-.658-8.159-1.974A6.3,6.3,0,0,1,44.9,35.692V35.3a7.419,7.419,0,0,1,3.027-6.053l-.263-.395a3.686,3.686,0,0,1-2.237-3.684h0A3.677,3.677,0,0,1,47.4,21.743a7.13,7.13,0,0,1-2.237-5.527v-.395a8.337,8.337,0,0,1,2.369-6.053C49.111,8.19,51.874,7.4,55.559,7.4H66.086a1.87,1.87,0,0,1,.79.263.938.938,0,0,1,.395.79V9.769ZM62.533,35.56v-.395a2.371,2.371,0,0,0-1.184-2.105,16.562,16.562,0,0,0-4.474-1.579l-5.4-1.316a6.363,6.363,0,0,0-1.711,2.105,5.761,5.761,0,0,0-.526,2.763v.395a3.446,3.446,0,0,0,1.579,3.158,10.188,10.188,0,0,0,5.264,1.053c2.5,0,4.342-.395,5.264-1.053A3.822,3.822,0,0,0,62.533,35.56Zm-.395-19.344v-.395a4.952,4.952,0,0,0-1.447-3.684c-.921-.921-2.632-1.316-5-1.316s-4.079.395-5,1.316a4.875,4.875,0,0,0-1.316,3.684v.395c0,3.158,2.105,4.869,6.316,4.869,2.369,0,4.079-.395,5-1.316A4.079,4.079,0,0,0,62.138,16.216Z" transform="translate(-44.9 -7.4)"/>
    </g>
    <g id="Group_4" data-name="Group 4" transform="translate(85.27 9.474)">
      <path id="Path_4" data-name="Path 4" class="cls-1" d="M84.538,32.6a.9.9,0,0,1-.921.921H81.38a.9.9,0,0,1-.921-.921V17.069c0-2.369-.395-3.948-1.184-4.869s-2.105-1.316-3.948-1.316a14.638,14.638,0,0,0-6.316,1.842V32.6a.9.9,0,0,1-.921.921H65.721A.9.9,0,0,1,64.8,32.6V8.516a.9.9,0,0,1,.921-.921H68.09a.9.9,0,0,1,.921.921v.921a15.751,15.751,0,0,1,7.5-2.237c5.527,0,8.159,3.29,8.159,9.869V32.6Z" transform="translate(-64.8 -7.2)"/>
    </g>
    <g id="Group_5" data-name="Group 5" transform="translate(109.482 9.474)">
      <path id="Path_5" data-name="Path 5" class="cls-1" d="M103.991,20.754c0,.658-.263,1.053-.921,1.053H87.279v.658q0,4.145,1.579,5.922a6.454,6.454,0,0,0,5,1.842,51.292,51.292,0,0,0,8.422-.526h.263c.526,0,.79.263.79.658v1.579c0,.658-.263.921-.921,1.053a44.565,44.565,0,0,1-8.422.79,12.469,12.469,0,0,1-3.948-.526,9.664,9.664,0,0,1-3.421-1.842,8.2,8.2,0,0,1-2.5-3.553,13.643,13.643,0,0,1-.921-5.4V18.253c0-3.421.921-6.185,2.763-8.159S90.306,7.2,93.727,7.2s5.922.921,7.764,2.895,2.632,4.606,2.632,8.159v2.5Zm-4.079-2.105v-.395c0-2.632-.526-4.474-1.447-5.658-1.053-1.184-2.5-1.711-4.737-1.711-4.211,0-6.316,2.5-6.316,7.369v.395h12.5Z" transform="translate(-83.2 -7.2)"/>
    </g>
    <g id="Group_6" data-name="Group 6" transform="translate(133.037 3.816)">
      <path id="Path_6" data-name="Path 6" class="cls-1" d="M116.759,34.218q0,.592-.79.79a25.693,25.693,0,0,1-3.027.263c-2.237,0-3.948-.395-4.869-1.316-1.053-.921-1.447-2.5-1.447-5V12.374l-4.606-.526c-.658,0-.921-.395-.921-.79V9.743c0-.526.263-.79.921-.79h4.606V4.216a.87.87,0,0,1,.79-.921l2.5-.395h.132c.526,0,.658.263.658.79V8.822h5.132a.9.9,0,0,1,.921.921v1.579a.9.9,0,0,1-.921.921h-5.132V28.691c0,1.316.132,2.105.526,2.369a2.731,2.731,0,0,0,1.974.526h2.632c.658,0,1.053.263,1.053.658v1.974Z" transform="translate(-101.1 -2.9)"/>
    </g>
    <g id="Group_7" data-name="Group 7" transform="translate(152.512 0)">
      <path id="Path_7" data-name="Path 7" class="cls-1" d="M120.111,4.737a1,1,0,0,1-.263.658,1,1,0,0,1-.658.263h-2.369a1,1,0,0,1-.658-.263,1,1,0,0,1-.263-.658V.921a1,1,0,0,1,.263-.658A1,1,0,0,1,116.821,0h2.369a1,1,0,0,1,.658.263,1,1,0,0,1,.263.658Zm-.132,30.134a.9.9,0,0,1-.921.921h-2.237a.9.9,0,0,1-.921-.921V10.79a.9.9,0,0,1,.921-.921h2.237a.9.9,0,0,1,.921.921Z" transform="translate(-115.9 0)"/>
    </g>
    <g id="Group_8" data-name="Group 8" transform="translate(161.592 9.606)">
      <path id="Path_8" data-name="Path 8" class="cls-1" d="M139.643,32.3a1,1,0,0,1-.921,1.053,28.338,28.338,0,0,1-5.922.526,9.325,9.325,0,0,1-7.369-3.027,12.892,12.892,0,0,1-2.632-8.422V18.748a12.892,12.892,0,0,1,2.632-8.422C127.142,8.221,129.643,7.3,132.8,7.3a29.169,29.169,0,0,1,5.922.526,1.112,1.112,0,0,1,.79.263c.132.132.132.395.132.79V10.59c0,.526-.263.658-.79.658h-.132a44.3,44.3,0,0,0-5.79-.395q-5.921,0-5.922,7.9v3.684q0,7.9,5.922,7.9a41.389,41.389,0,0,0,5.79-.395h.132c.526,0,.79.263.79.658V32.3Z" transform="translate(-122.8 -7.3)"/>
    </g>
  </g>
</svg>
