<?xml version="1.0" encoding="utf-8"?>
<!-- Generator: Adobe Illustrator 19.1.0, SVG Export Plug-In . SVG Version: 6.00 Build 0)  -->
<svg version="1.1" id="Layer_1" xmlns="http://www.w3.org/2000/svg"  x="0px" y="0px"
	 viewBox="0 0 431.5 216.8" style="enable-background:new 0 0 431.5 216.8;" xml:space="preserve">
<style type="text/css">
	.st0{fill:#FFFFFF;}
	.st1{opacity:0.75;}
</style>

	<g id="XMLID_1_">
		<g id="LOGO_1_">
			<g>
				<g>
					<g>
						<path class="st0" d="M184.4,30.2c0,0.1-0.1,0.2-0.2,0.2c-0.3,0-0.5,0.1-0.8,0.1c-0.6,0-1-0.1-1.2-0.3
							c-0.2-0.2-0.4-0.6-0.4-1.2v-4.1l-1.1-0.1c-0.1,0-0.2-0.1-0.2-0.2v-0.3c0-0.1,0.1-0.2,0.2-0.2h1.1v-1.1c0-0.1,0.1-0.2,0.2-0.2
							l0.6-0.1h0c0.1,0,0.2,0.1,0.2,0.2V24h1.3c0.1,0,0.1,0,0.2,0.1s0.1,0.1,0.1,0.2v0.4c0,0.1,0,0.1-0.1,0.2c0,0-0.1,0.1-0.2,0.1
							h-1.3v4.1c0,0.3,0,0.5,0.1,0.6c0.1,0.1,0.3,0.1,0.5,0.1h0.7c0.2,0,0.2,0.1,0.2,0.2V30.2z"/>
					</g>
				</g>
				<g>
					<g>
						<path class="st0" d="M190.5,27.2c0,0.2-0.1,0.3-0.2,0.3h-3.9v0.2c0,0.7,0.1,1.2,0.4,1.5c0.3,0.3,0.7,0.4,1.2,0.4
							c0.8,0,1.5,0,2.1-0.1h0.1c0.1,0,0.2,0.1,0.2,0.2V30c0,0.1-0.1,0.2-0.2,0.3c-0.7,0.1-1.4,0.2-2.1,0.2c-0.4,0-0.7,0-1-0.1
							c-0.3-0.1-0.6-0.2-0.8-0.4c-0.3-0.2-0.5-0.5-0.6-0.9c-0.1-0.4-0.2-0.8-0.2-1.3v-1.1c0-0.8,0.2-1.5,0.7-2
							c0.5-0.5,1.1-0.7,1.9-0.7c0.8,0,1.5,0.2,1.9,0.7c0.4,0.5,0.7,1.2,0.7,2V27.2z M189.4,26.7v-0.1c0-0.6-0.1-1.1-0.4-1.4
							c-0.2-0.3-0.6-0.4-1.2-0.4c-1,0-1.6,0.6-1.6,1.8v0.1H189.4z"/>
					</g>
				</g>
				<g>
					<g>
						<path class="st0" d="M195.9,28.8c0,0.6-0.2,1-0.6,1.3c-0.4,0.3-0.9,0.4-1.6,0.4c-0.8,0-1.4-0.1-1.8-0.2
							c-0.2,0-0.2-0.1-0.2-0.2v-0.4c0-0.1,0.1-0.2,0.2-0.2h0c0.7,0.1,1.3,0.1,1.8,0.1c0.4,0,0.7-0.1,0.9-0.2
							c0.2-0.1,0.3-0.3,0.3-0.6c0-0.2-0.1-0.3-0.2-0.5c-0.1-0.1-0.4-0.3-0.7-0.5l-1.2-0.7c-0.8-0.5-1.2-1-1.2-1.7
							c0-1,0.7-1.6,2.1-1.6c0.6,0,1.2,0.1,1.8,0.2c0.1,0,0.2,0.1,0.2,0.2v0.4c0,0.1-0.1,0.2-0.2,0.2h0c-0.7-0.1-1.3-0.1-1.8-0.1
							c-0.4,0-0.6,0-0.8,0.1c-0.2,0.1-0.3,0.3-0.3,0.5c0,0.2,0.1,0.3,0.2,0.4c0.1,0.1,0.3,0.3,0.6,0.4l1.2,0.7
							c0.5,0.3,0.8,0.6,1,0.8C195.8,28.1,195.9,28.4,195.9,28.8z"/>
					</g>
				</g>
				<g>
					<g>
						<path class="st0" d="M198.5,30.2c0,0.1,0,0.1-0.1,0.2c0,0-0.1,0.1-0.2,0.1h-0.6c-0.1,0-0.1,0-0.1-0.1c0,0-0.1-0.1-0.1-0.2
							v-8.3c0-0.1,0.1-0.2,0.2-0.2h0.6c0.1,0,0.1,0,0.2,0.1c0,0,0.1,0.1,0.1,0.2V30.2z"/>
					</g>
				</g>
				<g>
					<g>
						<path class="st0" d="M204.6,30.2c0,0.1,0,0.1-0.1,0.2c0,0-0.1,0.1-0.2,0.1h-0.5c-0.1,0-0.1,0-0.2-0.1c0,0-0.1-0.1-0.1-0.2
							v-0.3c-0.7,0.4-1.3,0.6-1.8,0.6c-0.6,0-1-0.1-1.4-0.4c-0.4-0.3-0.5-0.8-0.5-1.5v-0.1c0-0.6,0.2-1.1,0.6-1.4
							c0.4-0.3,1.2-0.5,2.2-0.5h0.9v-0.5c0-0.5-0.1-0.8-0.3-1c-0.2-0.2-0.5-0.3-1-0.3c-0.6,0-1.2,0-1.8,0.1h-0.1
							c-0.1,0-0.2-0.1-0.2-0.2v-0.4c0-0.1,0.1-0.2,0.2-0.2c0.6-0.1,1.2-0.2,1.8-0.2c1.5,0,2.3,0.7,2.3,2.2V30.2z M203.6,29.2v-1.9
							h-0.9c-0.7,0-1.2,0.1-1.4,0.3c-0.2,0.2-0.4,0.5-0.4,0.9v0.1c0,0.4,0.1,0.7,0.3,0.8c0.2,0.2,0.4,0.2,0.8,0.2
							C202.5,29.6,203,29.5,203.6,29.2z"/>
					</g>
				</g>
				<g>
					<g>
						<path class="st0" d="M213.6,30.2c0,0.1,0,0.1-0.1,0.2c0,0-0.1,0.1-0.2,0.1h-0.5c-0.1,0-0.1,0-0.2-0.1c0,0-0.1-0.1-0.1-0.2
							v-0.3c-0.7,0.4-1.3,0.6-1.8,0.6c-0.6,0-1-0.1-1.4-0.4c-0.4-0.3-0.5-0.8-0.5-1.5v-0.1c0-0.6,0.2-1.1,0.6-1.4
							c0.4-0.3,1.2-0.5,2.2-0.5h0.9v-0.5c0-0.5-0.1-0.8-0.3-1c-0.2-0.2-0.5-0.3-1-0.3c-0.6,0-1.2,0-1.8,0.1h-0.1
							c-0.1,0-0.2-0.1-0.2-0.2v-0.4c0-0.1,0.1-0.2,0.2-0.2c0.6-0.1,1.2-0.2,1.8-0.2c1.5,0,2.3,0.7,2.3,2.2V30.2z M212.6,29.2v-1.9
							h-0.9c-0.7,0-1.2,0.1-1.4,0.3s-0.4,0.5-0.4,0.9v0.1c0,0.4,0.1,0.7,0.3,0.8c0.2,0.2,0.4,0.2,0.8,0.2
							C211.5,29.6,212,29.5,212.6,29.2z"/>
					</g>
				</g>
				<g>
					<g>
						<path class="st0" d="M222.9,30.2c0,0.1,0,0.1-0.1,0.2c0,0-0.1,0.1-0.2,0.1h-0.6c-0.1,0-0.1,0-0.2-0.1c0,0-0.1-0.1-0.1-0.2V26
							c0-0.8-0.4-1.2-1.1-1.2c-0.4,0-0.8,0.1-1.4,0.3c0.1,0.3,0.1,0.6,0.1,0.9v4.2c0,0.1,0,0.1-0.1,0.2c0,0-0.1,0.1-0.2,0.1h-0.6
							c-0.1,0-0.2-0.1-0.2-0.2V26c0-0.5-0.1-0.8-0.2-1c-0.1-0.2-0.4-0.3-0.7-0.3c-0.3,0-0.8,0.2-1.4,0.5v4.9c0,0.1,0,0.1-0.1,0.2
							c0,0-0.1,0.1-0.2,0.1h-0.6c-0.1,0-0.2-0.1-0.2-0.2v-6c0-0.1,0-0.1,0.1-0.2c0,0,0.1-0.1,0.2-0.1h0.6c0.1,0,0.1,0,0.2,0.1
							c0,0,0.1,0.1,0.1,0.2v0.2c0.6-0.4,1.2-0.5,1.7-0.5c0.5,0,0.9,0.2,1.2,0.5c0.7-0.3,1.3-0.5,1.9-0.5c1.3,0,1.9,0.7,1.9,2.1V30.2
							z"/>
					</g>
				</g>
				<g>
					<g>
						<path class="st0" d="M229,30.2c0,0.1,0,0.1-0.1,0.2c0,0-0.1,0.1-0.2,0.1h-0.5c-0.1,0-0.1,0-0.2-0.1c0,0-0.1-0.1-0.1-0.2v-0.3
							c-0.7,0.4-1.3,0.6-1.8,0.6c-0.6,0-1-0.1-1.4-0.4c-0.4-0.3-0.5-0.8-0.5-1.5v-0.1c0-0.6,0.2-1.1,0.6-1.4
							c0.4-0.3,1.2-0.5,2.2-0.5h0.9v-0.5c0-0.5-0.1-0.8-0.3-1c-0.2-0.2-0.5-0.3-1-0.3c-0.6,0-1.2,0-1.8,0.1h-0.1
							c-0.1,0-0.2-0.1-0.2-0.2v-0.4c0-0.1,0.1-0.2,0.2-0.2c0.6-0.1,1.2-0.2,1.8-0.2c1.5,0,2.3,0.7,2.3,2.2V30.2z M227.9,29.2v-1.9
							h-0.9c-0.7,0-1.2,0.1-1.4,0.3c-0.2,0.2-0.4,0.5-0.4,0.9v0.1c0,0.4,0.1,0.7,0.3,0.8c0.2,0.2,0.4,0.2,0.8,0.2
							C226.8,29.6,227.4,29.5,227.9,29.2z"/>
					</g>
				</g>
				<g>
					<g>
						<path class="st0" d="M234.8,30.2c0,0.1,0,0.1-0.1,0.2c0,0-0.1,0.1-0.2,0.1H231c-0.2,0-0.4-0.1-0.5-0.2s-0.2-0.3-0.2-0.5v-0.2
							c0-0.3,0.1-0.5,0.3-0.8l3-3.7c0,0,0-0.1,0-0.1c0-0.1,0-0.1-0.1-0.1h-2.8c-0.1,0-0.1,0-0.2-0.1c0,0-0.1-0.1-0.1-0.2v-0.4
							c0-0.1,0-0.1,0.1-0.2s0.1-0.1,0.2-0.1h3.4c0.4,0,0.7,0.2,0.7,0.6v0.3c0,0.2-0.1,0.4-0.3,0.6l-3.1,3.8c0,0-0.1,0.1-0.1,0.1
							c0,0.1,0,0.1,0.1,0.1h3.1c0.1,0,0.1,0,0.2,0.1c0,0,0.1,0.1,0.1,0.2V30.2z"/>
					</g>
				</g>
				<g>
					<g>
						<path class="st0" d="M237.3,22.7c0,0.1,0,0.1-0.1,0.2c0,0-0.1,0.1-0.2,0.1h-0.6c-0.1,0-0.1,0-0.2-0.1c0,0-0.1-0.1-0.1-0.2
							v-0.9c0-0.1,0-0.1,0.1-0.2c0,0,0.1-0.1,0.2-0.1h0.6c0.1,0,0.1,0,0.2,0.1c0,0,0.1,0.1,0.1,0.2V22.7z M237.3,30.2
							c0,0.1,0,0.1-0.1,0.2c0,0-0.1,0.1-0.2,0.1h-0.6c-0.1,0-0.1,0-0.2-0.1c0,0-0.1-0.1-0.1-0.2v-6c0-0.1,0-0.1,0.1-0.2
							c0,0,0.1-0.1,0.2-0.1h0.6c0.1,0,0.1,0,0.2,0.1c0,0,0.1,0.1,0.1,0.2V30.2z"/>
					</g>
				</g>
				<g>
					<g>
						<path class="st0" d="M244,30.2c0,0.1,0,0.1-0.1,0.2c0,0-0.1,0.1-0.2,0.1h-0.6c-0.1,0-0.1,0-0.2-0.1c0,0-0.1-0.1-0.1-0.2v-3.8
							c0-0.6-0.1-1-0.3-1.2c-0.2-0.2-0.5-0.3-1-0.3c-0.4,0-1,0.2-1.6,0.5v4.9c0,0.1,0,0.1-0.1,0.2c0,0-0.1,0.1-0.2,0.1h-0.6
							c-0.1,0-0.1,0-0.2-0.1c0,0-0.1-0.1-0.1-0.2v-6c0-0.1,0-0.1,0.1-0.2c0,0,0.1-0.1,0.2-0.1h0.6c0.1,0,0.1,0,0.2,0.1
							c0,0,0.1,0.1,0.1,0.2v0.2c0.6-0.4,1.3-0.5,1.9-0.5c1.4,0,2,0.8,2,2.4V30.2z"/>
					</g>
				</g>
				<g>
					<g>
						<path class="st0" d="M250.9,24.5c0,0.1-0.1,0.2-0.2,0.2l-0.4,0.1c0.3,0.3,0.4,0.7,0.4,1.2v0.1c0,1.3-0.9,2-2.6,2
							c-0.5,0-1-0.1-1.4-0.2c-0.2,0.1-0.3,0.2-0.3,0.4c0,0.2,0.1,0.3,0.4,0.4l1.7,0.4c0.3,0.1,0.5,0.1,0.7,0.2
							c0.2,0.1,0.4,0.1,0.6,0.2c0.2,0.1,0.4,0.2,0.5,0.3c0.1,0.1,0.2,0.2,0.3,0.4c0.1,0.2,0.1,0.4,0.1,0.6v0.1
							c0,1.2-0.9,1.8-2.7,1.8c-0.9,0-1.6-0.2-2-0.5c-0.4-0.3-0.7-0.8-0.7-1.4v-0.1c0-0.6,0.2-1.1,0.7-1.5l-0.1,0
							c-0.4-0.2-0.5-0.5-0.5-0.9v0c0-0.4,0.2-0.7,0.5-0.8c-0.4-0.3-0.5-0.8-0.5-1.4V26c0-0.6,0.2-1.1,0.6-1.5c0.4-0.4,1.1-0.6,2-0.6
							h2.6c0.1,0,0.1,0,0.2,0.1c0.1,0.1,0.1,0.1,0.1,0.2V24.5z M249.7,30.9L249.7,30.9c0-0.3-0.1-0.5-0.3-0.6
							c-0.2-0.1-0.6-0.3-1.1-0.4l-1.3-0.3c-0.2,0.2-0.3,0.3-0.4,0.5c-0.1,0.2-0.1,0.4-0.1,0.7v0.1c0,0.4,0.1,0.6,0.4,0.8
							c0.3,0.2,0.7,0.3,1.3,0.3c0.6,0,1.1-0.1,1.3-0.2S249.7,31.3,249.7,30.9z M249.6,26.1L249.6,26.1c0-0.5-0.1-0.8-0.3-1
							c-0.2-0.2-0.6-0.3-1.2-0.3c-0.6,0-1,0.1-1.2,0.3c-0.2,0.2-0.3,0.5-0.3,0.9v0.1c0,0.8,0.5,1.2,1.6,1.2c0.6,0,1-0.1,1.2-0.3
							C249.5,26.8,249.6,26.5,249.6,26.1z"/>
					</g>
				</g>
			</g>
			<g>
				<g>
					<path class="st0" d="M253.8,35h-76.1c-1.2,0-2.2-1-2.2-2.2V20.5c0-1.2,1-2.2,2.2-2.2h76.1c1.2,0,2.2,1,2.2,2.2v12.3
						C256,34.1,255,35,253.8,35z M177.7,19.2c-0.7,0-1.3,0.6-1.3,1.3v12.3c0,0.7,0.6,1.3,1.3,1.3h76.1c0.7,0,1.3-0.6,1.3-1.3V20.5
						c0-0.7-0.6-1.3-1.3-1.3H177.7z"/>
				</g>
			</g>
		</g>
		<g id="STATIC_1_">
			<g id="STATIC_CHARGE_1_">
				<path class="st0" d="M72.2,193.9c0,0.3,0,0.5-0.1,0.7s-0.2,0.4-0.4,0.6c-0.2,0.2-0.4,0.4-0.7,0.5s-0.7,0.2-1.2,0.2
					c-0.5,0-1,0-1.6-0.1c-0.1,0-0.1,0-0.2-0.1c0,0,0-0.1,0-0.1v-0.4c0-0.1,0.1-0.2,0.2-0.2h0c0.4,0,1,0.1,1.6,0.1
					c0.6,0,0.9-0.1,1.2-0.3c0.2-0.2,0.3-0.5,0.3-0.9c0-0.2-0.1-0.4-0.2-0.6s-0.5-0.4-0.9-0.7l-0.9-0.6c-0.5-0.3-0.8-0.6-1-0.8
					s-0.3-0.6-0.3-1c0-1.2,0.8-1.7,2.3-1.7c0.6,0,1.2,0,1.7,0.1c0.1,0,0.2,0.1,0.2,0.2v0.4c0,0.1-0.1,0.2-0.2,0.2h0
					c-0.6,0-1.1-0.1-1.7-0.1c-0.5,0-0.9,0.1-1.1,0.2c-0.2,0.1-0.3,0.4-0.3,0.7c0,0.2,0.1,0.4,0.2,0.6c0.2,0.2,0.4,0.4,0.8,0.6
					l0.9,0.5c0.6,0.3,1,0.6,1.2,1C72.1,193.2,72.2,193.5,72.2,193.9z"/>
				<path class="st0" d="M77.9,189.1c0,0.1-0.1,0.2-0.2,0.2h-1.9v6.3c0,0.1,0,0.1,0,0.1c0,0-0.1,0.1-0.1,0.1h-0.5c0,0-0.1,0-0.1-0.1
					c0,0-0.1-0.1-0.1-0.1v-6.3H73c-0.1,0-0.2-0.1-0.2-0.2v-0.4c0,0,0-0.1,0.1-0.1s0.1-0.1,0.1-0.1h4.7c0.1,0,0.2,0.1,0.2,0.2V189.1z
					"/>
				<path class="st0" d="M83.9,195.6c0,0.1-0.1,0.2-0.2,0.2h-0.6c-0.1,0-0.1,0-0.2-0.1l-0.6-2.2h-2.5l-0.6,2.2
					c0,0.1-0.1,0.1-0.2,0.1h-0.6c-0.1,0-0.2-0.1-0.2-0.2c0,0,0-0.1,0-0.1l1.8-6.4c0.1-0.5,0.5-0.7,1-0.7c0.5,0,0.8,0.2,1,0.7
					L83.9,195.6C83.9,195.6,83.9,195.6,83.9,195.6z M82.1,192.6l-0.9-3.2c0-0.1-0.1-0.2-0.2-0.2c-0.1,0-0.2,0.1-0.2,0.2l-0.9,3.2
					H82.1z"/>
				<path class="st0" d="M89.3,189.1c0,0.1-0.1,0.2-0.2,0.2h-1.9v6.3c0,0.1,0,0.1,0,0.1c0,0-0.1,0.1-0.1,0.1h-0.5c0,0-0.1,0-0.1-0.1
					c0,0-0.1-0.1-0.1-0.1v-6.3h-1.9c-0.1,0-0.2-0.1-0.2-0.2v-0.4c0,0,0-0.1,0.1-0.1s0.1-0.1,0.1-0.1h4.7c0.1,0,0.2,0.1,0.2,0.2
					V189.1z"/>
				<path class="st0" d="M91.2,195.6c0,0.1,0,0.1,0,0.1c0,0-0.1,0.1-0.1,0.1h-0.5c0,0-0.1,0-0.1-0.1c0,0-0.1-0.1-0.1-0.1v-6.9
					c0-0.1,0.1-0.2,0.2-0.2H91c0.1,0,0.1,0,0.1,0.1c0,0,0,0.1,0,0.1V195.6z"/>
				<path class="st0" d="M96.8,195.5c0,0.1-0.1,0.2-0.2,0.2c-0.4,0.1-1,0.1-1.6,0.1c-0.3,0-0.6,0-0.9-0.1c-0.3-0.1-0.6-0.3-0.8-0.5
					c-0.3-0.2-0.5-0.5-0.6-0.9s-0.2-0.9-0.2-1.5v-1.4c0-0.6,0.1-1.1,0.2-1.5s0.4-0.7,0.6-0.9s0.5-0.4,0.8-0.5
					c0.3-0.1,0.6-0.1,0.9-0.1c0.4,0,1,0.1,1.6,0.2c0.1,0,0.2,0.1,0.2,0.1v0.5c0,0.1,0,0.1-0.1,0.1h0c-0.7-0.1-1.2-0.1-1.6-0.1
					c-1.1,0-1.7,0.7-1.7,2.2v1.4c0,0.8,0.2,1.3,0.5,1.7s0.7,0.5,1.2,0.5c0.4,0,1,0,1.6-0.1h0c0.1,0,0.2,0.1,0.2,0.2V195.5z"/>
				<path class="st0" d="M104,195.5c0,0.1-0.1,0.2-0.2,0.2c-0.4,0.1-1,0.1-1.6,0.1c-0.3,0-0.6,0-0.9-0.1c-0.3-0.1-0.6-0.3-0.8-0.5
					c-0.3-0.2-0.5-0.5-0.6-0.9s-0.2-0.9-0.2-1.5v-1.4c0-0.6,0.1-1.1,0.2-1.5s0.4-0.7,0.6-0.9s0.5-0.4,0.8-0.5
					c0.3-0.1,0.6-0.1,0.9-0.1c0.4,0,1,0.1,1.6,0.2c0.1,0,0.2,0.1,0.2,0.1v0.5c0,0.1,0,0.1-0.1,0.1h0c-0.7-0.1-1.2-0.1-1.6-0.1
					c-1.1,0-1.7,0.7-1.7,2.2v1.4c0,0.8,0.2,1.3,0.5,1.7s0.7,0.5,1.2,0.5c0.4,0,1,0,1.6-0.1h0c0.1,0,0.2,0.1,0.2,0.2V195.5z"/>
				<path class="st0" d="M110,195.6c0,0.1,0,0.1-0.1,0.1s-0.1,0.1-0.1,0.1h-0.5c-0.1,0-0.1,0-0.1-0.1s-0.1-0.1-0.1-0.1v-3.2h-3.3
					v3.2c0,0.1,0,0.1-0.1,0.1s-0.1,0.1-0.1,0.1h-0.5c-0.1,0-0.1,0-0.1-0.1s-0.1-0.1-0.1-0.1v-6.9c0-0.1,0-0.1,0.1-0.1
					s0.1-0.1,0.1-0.1h0.5c0.1,0,0.1,0,0.1,0.1s0.1,0.1,0.1,0.1v2.8h3.3v-2.8c0-0.1,0-0.1,0.1-0.1s0.1-0.1,0.1-0.1h0.5
					c0.1,0,0.1,0,0.1,0.1s0.1,0.1,0.1,0.1V195.6z"/>
				<path class="st0" d="M116.4,195.6c0,0.1-0.1,0.2-0.2,0.2h-0.6c-0.1,0-0.1,0-0.2-0.1l-0.6-2.2h-2.5l-0.6,2.2
					c0,0.1-0.1,0.1-0.2,0.1H111c-0.1,0-0.2-0.1-0.2-0.2c0,0,0-0.1,0-0.1l1.8-6.4c0.1-0.5,0.5-0.7,1-0.7c0.5,0,0.8,0.2,1,0.7
					L116.4,195.6C116.4,195.6,116.4,195.6,116.4,195.6z M114.7,192.6l-0.9-3.2c0-0.1-0.1-0.2-0.2-0.2c-0.1,0-0.2,0.1-0.2,0.2
					l-0.9,3.2H114.7z"/>
				<path class="st0" d="M122.2,195.7c0,0.1,0,0.1-0.1,0.1h-0.6c-0.1,0-0.2,0-0.3-0.1l-1.7-2.9h-0.1h-0.2c-0.2,0-0.6,0-1.1,0v2.9
					c0,0.1,0,0.1,0,0.1c0,0-0.1,0.1-0.1,0.1h-0.5c0,0-0.1,0-0.1-0.1c0,0-0.1-0.1-0.1-0.1v-6.8c0-0.1,0.1-0.2,0.2-0.2
					c0.4-0.1,1-0.1,1.7-0.1c1.8,0,2.7,0.7,2.7,2.1v0.1c0,0.5-0.1,1-0.4,1.3c-0.3,0.3-0.6,0.6-1.1,0.7L122.2,195.7
					C122.2,195.6,122.2,195.6,122.2,195.7z M121.1,190.6L121.1,190.6c0-0.5-0.2-0.9-0.5-1.1c-0.3-0.2-0.8-0.3-1.4-0.3
					c-0.6,0-0.9,0-1.1,0v2.7c0.6,0,0.9,0,1.1,0c0.6,0,1.1-0.1,1.4-0.3C120.9,191.5,121.1,191.1,121.1,190.6z"/>
				<path class="st0" d="M127.6,195.5c0,0.1-0.1,0.2-0.2,0.2c-0.6,0.1-1.2,0.1-1.9,0.1c-0.3,0-0.6-0.1-0.9-0.2s-0.6-0.3-0.8-0.5
					c-0.2-0.2-0.4-0.5-0.6-1c-0.1-0.4-0.2-0.9-0.2-1.4v-1.3c0-0.6,0.1-1.1,0.2-1.5s0.4-0.7,0.6-1c0.3-0.2,0.5-0.4,0.8-0.5
					s0.6-0.1,0.9-0.1c0.7,0,1.3,0,1.9,0.1c0.1,0,0.2,0.1,0.2,0.1v0.5c0,0.1,0,0.1-0.1,0.1h0c-0.5,0-1.2-0.1-1.9-0.1
					c-1.2,0-1.7,0.7-1.7,2.2v1.3c0,0.8,0.2,1.3,0.5,1.7c0.3,0.4,0.7,0.6,1.2,0.6c0.4,0,0.8,0,1.2-0.1v-2.8c0-0.1,0.1-0.2,0.2-0.2
					h0.5c0.1,0,0.1,0,0.1,0.1c0,0,0.1,0.1,0.1,0.1V195.5z"/>
				<path class="st0" d="M132.9,195.7c0,0.1,0,0.1-0.1,0.1c-0.3,0-0.9,0-1.9,0c-0.7,0-1.2-0.1-1.6-0.4s-0.5-0.7-0.5-1.4v-3.8
					c0-0.6,0.2-1.1,0.5-1.4s0.9-0.4,1.6-0.4c0.9,0,1.5,0,1.9,0.1c0.1,0,0.1,0.1,0.1,0.1v0.5c0,0.1,0,0.1-0.1,0.1H131
					c-0.5,0-0.8,0.1-1,0.2c-0.2,0.1-0.2,0.4-0.2,0.8v1.4h3c0.1,0,0.1,0,0.1,0.1s0.1,0.1,0.1,0.1v0.4c0,0.1,0,0.1-0.1,0.1
					s-0.1,0.1-0.1,0.1h-3v1.6c0,0.4,0.1,0.7,0.2,0.8c0.2,0.1,0.5,0.2,1,0.2h1.9c0.1,0,0.1,0,0.1,0.1V195.7z"/>
			</g>
			<g id="MAGNET_1_">
				<g>
					<path class="st0" d="M110.4,160.2c-2.9-2.9-7.7-2.9-10.7,0l-6.8,6.8l3.3,3.3l1.9-1.9c0,0,0,0,0,0l4.9-4.9c0,0,0,0,0,0
						c1.1-1.1,3-1.1,4.1,0c1.1,1.1,1.1,3,0,4.1l0,0v0l0,0l-6.8,6.8l3.3,3.3l6.8-6.8C113.4,167.9,113.4,163.1,110.4,160.2z M96,169.1
						l-1.9-1.9l2.8-2.8l1.9,1.9L96,169.1z M103.4,176.5l-1.9-1.9l2.8-2.8l1.9,1.9L103.4,176.5z"/>
				</g>
				<g>
					<polygon class="st0" points="90.4,172.4 89.8,172.4 87.9,172.4 87.9,174.1 87.9,177.5 89.8,174.1 90.4,174.1 92.3,174.1 
						92.3,172.4 92.3,169.1 					"/>
				</g>
				<g>
					<polygon class="st0" points="97.8,179.9 97.2,179.9 95.3,179.9 95.3,181.6 95.3,184.9 97.2,181.6 97.8,181.6 99.7,181.6 
						99.7,179.9 99.7,176.6 					"/>
				</g>
			</g>
		</g>
		<g id="MOVE_1_">
			<g id="MOVE.REPLACE_1_">
				<path class="st0" d="M188.5,195.6c0,0.1,0,0.1-0.1,0.1s-0.1,0.1-0.1,0.1h-0.5c-0.1,0-0.1,0-0.1-0.1s-0.1-0.1-0.1-0.1v-5.8
					c0,0,0,0,0,0s0,0,0,0l-1.4,2.9c-0.1,0.1-0.1,0.2-0.2,0.2s-0.2,0.1-0.3,0.1h-0.4c-0.1,0-0.2,0-0.3-0.1c-0.1,0-0.1-0.1-0.2-0.2
					l-1.4-2.9c0,0,0,0,0,0c0,0,0,0,0,0v5.8c0,0.1,0,0.1-0.1,0.1s-0.1,0.1-0.1,0.1h-0.5c-0.1,0-0.1,0-0.1-0.1s-0.1-0.1-0.1-0.1v-6.8
					c0-0.1,0-0.1,0.1-0.2c0.1-0.1,0.1-0.1,0.2-0.1h0.6c0.2,0,0.3,0.1,0.3,0.2l1.6,3.3c0,0.1,0.1,0.1,0.1,0.1c0,0,0.1,0,0.1-0.1
					l1.6-3.3c0.1-0.1,0.2-0.2,0.3-0.2h0.6c0.1,0,0.1,0,0.2,0.1c0.1,0.1,0.1,0.1,0.1,0.2V195.6z"/>
				<path class="st0" d="M194.9,192.8c0,1-0.2,1.8-0.7,2.3c-0.5,0.5-1.1,0.8-1.9,0.8c-0.8,0-1.4-0.3-1.9-0.8
					c-0.5-0.5-0.7-1.3-0.7-2.3v-1.3c0-1,0.2-1.8,0.7-2.3c0.5-0.5,1.1-0.8,1.9-0.8c0.8,0,1.4,0.3,1.9,0.8c0.5,0.5,0.7,1.3,0.7,2.3
					V192.8z M194,192.8v-1.3c0-1.5-0.6-2.3-1.7-2.3c-1.2,0-1.7,0.8-1.7,2.3v1.3c0,1.5,0.6,2.3,1.7,2.3
					C193.5,195.1,194,194.3,194,192.8z"/>
				<path class="st0" d="M201.2,188.7C201.2,188.7,201.2,188.8,201.2,188.7l-1.8,6.4c-0.1,0.5-0.5,0.7-1,0.7c-0.5,0-0.9-0.2-1-0.7
					l-1.8-6.4c0,0,0,0,0-0.1c0-0.1,0.1-0.2,0.2-0.2h0.6c0.1,0,0.1,0,0.2,0.1l1.7,6.2c0,0.1,0.1,0.2,0.2,0.2c0.1,0,0.1-0.1,0.2-0.2
					l1.7-6.2c0-0.1,0.1-0.1,0.2-0.1h0.6C201.2,188.5,201.2,188.6,201.2,188.7z"/>
				<path class="st0" d="M206.2,195.7c0,0.1,0,0.1-0.1,0.1c-0.3,0-0.9,0-1.9,0c-0.7,0-1.2-0.1-1.6-0.4s-0.5-0.7-0.5-1.4v-3.8
					c0-0.6,0.2-1.1,0.5-1.4s0.9-0.4,1.6-0.4c0.9,0,1.5,0,1.9,0.1c0.1,0,0.1,0.1,0.1,0.1v0.5c0,0.1,0,0.1-0.1,0.1h-1.9
					c-0.5,0-0.8,0.1-1,0.2c-0.2,0.1-0.2,0.4-0.2,0.8v1.4h3c0.1,0,0.1,0,0.1,0.1s0.1,0.1,0.1,0.1v0.4c0,0.1,0,0.1-0.1,0.1
					s-0.1,0.1-0.1,0.1h-3v1.6c0,0.4,0.1,0.7,0.2,0.8c0.2,0.1,0.5,0.2,1,0.2h1.9c0.1,0,0.1,0,0.1,0.1V195.7z"/>
				<path class="st0" d="M207.9,195.6c0,0.1,0,0.1-0.1,0.1s-0.1,0.1-0.1,0.1h-0.5c-0.1,0-0.1,0-0.1-0.1s-0.1-0.1-0.1-0.1v-0.9
					c0-0.1,0-0.1,0.1-0.1s0.1-0.1,0.1-0.1h0.5c0.1,0,0.1,0,0.1,0.1s0.1,0.1,0.1,0.1V195.6z"/>
				<path class="st0" d="M216.2,195.7c0,0.1,0,0.1-0.1,0.1h-0.6c-0.1,0-0.2,0-0.3-0.1l-1.7-2.9h-0.1h-0.2c-0.2,0-0.6,0-1.1,0v2.9
					c0,0.1,0,0.1,0,0.1c0,0-0.1,0.1-0.1,0.1h-0.5c0,0-0.1,0-0.1-0.1c0,0-0.1-0.1-0.1-0.1v-6.8c0-0.1,0.1-0.2,0.2-0.2
					c0.4-0.1,1-0.1,1.7-0.1c1.8,0,2.7,0.7,2.7,2.1v0.1c0,0.5-0.1,1-0.4,1.3c-0.3,0.3-0.6,0.6-1.1,0.7L216.2,195.7
					C216.2,195.6,216.2,195.6,216.2,195.7z M215.1,190.6L215.1,190.6c0-0.5-0.2-0.9-0.5-1.1c-0.3-0.2-0.8-0.3-1.4-0.3
					c-0.6,0-0.9,0-1.1,0v2.7c0.6,0,0.9,0,1.1,0c0.6,0,1.1-0.1,1.4-0.3C214.9,191.5,215.1,191.1,215.1,190.6z"/>
				<path class="st0" d="M221.2,195.7c0,0.1,0,0.1-0.1,0.1c-0.3,0-0.9,0-1.9,0c-0.7,0-1.2-0.1-1.6-0.4s-0.5-0.7-0.5-1.4v-3.8
					c0-0.6,0.2-1.1,0.5-1.4s0.9-0.4,1.6-0.4c0.9,0,1.5,0,1.9,0.1c0.1,0,0.1,0.1,0.1,0.1v0.5c0,0.1,0,0.1-0.1,0.1h-1.9
					c-0.5,0-0.8,0.1-1,0.2c-0.2,0.1-0.2,0.4-0.2,0.8v1.4h3c0.1,0,0.1,0,0.1,0.1s0.1,0.1,0.1,0.1v0.4c0,0.1,0,0.1-0.1,0.1
					s-0.1,0.1-0.1,0.1h-3v1.6c0,0.4,0.1,0.7,0.2,0.8c0.2,0.1,0.5,0.2,1,0.2h1.9c0.1,0,0.1,0,0.1,0.1V195.7z"/>
				<path class="st0" d="M226.9,190.7c0,1.5-0.9,2.2-2.7,2.2c-0.2,0-0.6,0-1,0v2.7c0,0.1,0,0.1,0,0.1c0,0-0.1,0.1-0.1,0.1h-0.5
					c0,0-0.1,0-0.1-0.1c0,0-0.1-0.1-0.1-0.1v-6.8c0-0.1,0.1-0.2,0.2-0.2c0.4-0.1,1-0.1,1.6-0.1c1.8,0,2.7,0.7,2.7,2.1V190.7z
					 M226,190.7v-0.1c0-0.5-0.1-0.8-0.4-1c-0.3-0.2-0.8-0.3-1.4-0.3c-0.3,0-0.7,0-1,0v2.9c0.6,0,0.9,0,1,0c0.7,0,1.1-0.1,1.4-0.3
					S226,191.2,226,190.7z"/>
				<path class="st0" d="M231.9,195.6c0,0.1,0,0.1-0.1,0.1c-0.4,0.1-1,0.1-1.9,0.1c-0.2,0-0.4,0-0.6,0c-0.2,0-0.4-0.1-0.6-0.1
					c-0.2-0.1-0.3-0.2-0.5-0.3c-0.1-0.1-0.2-0.3-0.3-0.5c-0.1-0.2-0.1-0.5-0.1-0.8v-5.3c0-0.1,0-0.1,0.1-0.1s0.1-0.1,0.1-0.1h0.5
					c0.1,0,0.1,0,0.1,0.1s0.1,0.1,0.1,0.1v5.3c0,0.4,0.1,0.7,0.2,0.8c0.2,0.1,0.5,0.2,1,0.2h1.9c0.1,0,0.1,0,0.1,0.1V195.6z"/>
				<path class="st0" d="M237.7,195.6c0,0.1-0.1,0.2-0.2,0.2H237c-0.1,0-0.1,0-0.2-0.1l-0.6-2.2h-2.5l-0.6,2.2
					c0,0.1-0.1,0.1-0.2,0.1h-0.6c-0.1,0-0.2-0.1-0.2-0.2c0,0,0-0.1,0-0.1l1.8-6.4c0.1-0.5,0.5-0.7,1-0.7c0.5,0,0.8,0.2,1,0.7
					L237.7,195.6C237.7,195.6,237.7,195.6,237.7,195.6z M236,192.6l-0.9-3.2c0-0.1-0.1-0.2-0.2-0.2c-0.1,0-0.2,0.1-0.2,0.2l-0.9,3.2
					H236z"/>
				<path class="st0" d="M242.8,195.5c0,0.1-0.1,0.2-0.2,0.2c-0.4,0.1-1,0.1-1.6,0.1c-0.3,0-0.6,0-0.9-0.1c-0.3-0.1-0.6-0.3-0.8-0.5
					c-0.3-0.2-0.5-0.5-0.6-0.9c-0.2-0.4-0.2-0.9-0.2-1.5v-1.4c0-0.6,0.1-1.1,0.2-1.5c0.2-0.4,0.4-0.7,0.6-0.9
					c0.3-0.2,0.5-0.4,0.8-0.5c0.3-0.1,0.6-0.1,0.9-0.1c0.4,0,1,0.1,1.6,0.2c0.1,0,0.2,0.1,0.2,0.1v0.5c0,0.1,0,0.1-0.1,0.1h0
					c-0.7-0.1-1.2-0.1-1.6-0.1c-1.1,0-1.7,0.7-1.7,2.2v1.4c0,0.8,0.2,1.3,0.5,1.7c0.3,0.4,0.7,0.5,1.2,0.5c0.4,0,1,0,1.6-0.1h0
					c0.1,0,0.2,0.1,0.2,0.2V195.5z"/>
				<path class="st0" d="M247.7,195.7c0,0.1,0,0.1-0.1,0.1c-0.3,0-0.9,0-1.9,0c-0.7,0-1.2-0.1-1.6-0.4s-0.5-0.7-0.5-1.4v-3.8
					c0-0.6,0.2-1.1,0.5-1.4s0.9-0.4,1.6-0.4c0.9,0,1.5,0,1.9,0.1c0.1,0,0.1,0.1,0.1,0.1v0.5c0,0.1,0,0.1-0.1,0.1h-1.9
					c-0.5,0-0.8,0.1-1,0.2c-0.2,0.1-0.2,0.4-0.2,0.8v1.4h3c0.1,0,0.1,0,0.1,0.1s0.1,0.1,0.1,0.1v0.4c0,0.1,0,0.1-0.1,0.1
					s-0.1,0.1-0.1,0.1h-3v1.6c0,0.4,0.1,0.7,0.2,0.8c0.2,0.1,0.5,0.2,1,0.2h1.9c0.1,0,0.1,0,0.1,0.1V195.7z"/>
			</g>
			<g>
				<g>
					<path class="st0" d="M215.7,178.9L215.7,178.9L215.7,178.9c0,0-0.1-0.1-0.1-0.1c-0.3-0.3-0.6-0.8-0.5-1.6c0-0.6,0.3-1,0.6-1.4
						l0-3.3h0.8c-0.6-0.9-1.3-1.8-1.8-2.6c-0.2,0-0.4,0-0.6-0.1c-1.2-0.3-2.1-1.2-2.4-2.4c-0.1-0.3-0.1-0.5-0.1-0.8
						c0-0.3,0-0.5,0.1-0.8c0.3-1.2,1.2-2.2,2.4-2.4c0.2-0.1,0.5-0.1,0.8-0.1c0.3,0,0.5,0,0.8,0.1c1.2,0.3,2.1,1.2,2.4,2.4
						c0.1,0.2,0.1,0.5,0.1,0.8c0,0.2,0,0.4-0.1,0.6l0.6,0.9l0.2-0.2c0.3-0.2,0.8-0.4,1.2-0.3c0.1,0,0.1,0,0.2,0
						c0.1-0.1,0.2-0.2,0.3-0.2l0.4-0.3c0.3-0.2,0.8-0.4,1.2-0.3c0.3,0,0.6,0.1,0.9,0.2l0.2-0.1l0.1-0.1l0.2-0.1
						c0.2-0.1,0.5-0.1,0.7-0.1c0.7,0,1.2,0.4,1.5,0.8h1.4v1.4l4.6-2.1l-4.6-2.1v1.4H223v-5h-7.3v-6.5h1.4l-2.1-4.6l-2.1,4.6h1.4v6.5
						h-7.3v5l-4.2,0l0-1.4l-4.6,2.1l4.6,2.2l0-1.4l4.2,0v5h7.3l0,6.5h-1.4l2.1,4.6l1.9-4.1C216.5,179.4,216.1,179.3,215.7,178.9z"/>
				</g>
				<g>
					<g>
						<path class="st0" d="M224,167.9l-0.4,0.3c-0.3,0.2-0.3,0.8,0,1.2l-0.8-1.1c-0.2-0.3-0.7-0.4-1-0.2l-0.4,0.3
							c-0.3,0.2-0.4,0.7-0.2,1l1,1.4c-0.1,0-0.2,0.1-0.2,0.1l-1.2-1.8c-0.2-0.3-0.7-0.4-1-0.2l-0.4,0.3c-0.3,0.2-0.4,0.7-0.2,1
							l1.2,1.7c-0.1,0.1-0.1,0.2-0.2,0.3l-4.4-5.9c-0.2-0.3-0.7-0.4-1-0.2l-0.4,0.3c-0.3,0.2-0.4,0.7-0.2,1c0,0,5.5,7.5,6.3,8.8
							l-3.6,0.3c-0.5,0.1-0.7,0.5-0.7,0.9c0,0.9,0.6,1,1,1c0.6,0,3-0.1,4,0c0.7,0.1,3.5,1.2,5.4-0.1c1.4-1,2.3-3.1,1.5-4.9
							c-1.2-2.5-2.5-4.4-2.5-4.4C225,168.1,224.6,167.7,224,167.9z"/>
					</g>
				</g>
			</g>
		</g>
		<g id="ANY_SURFACE_1_">
			<g id="ANY_SURFACE_2_">
				<path class="st0" d="M309.2,195.6c0,0.1-0.1,0.2-0.2,0.2h-0.6c-0.1,0-0.1,0-0.2-0.1l-0.6-2.2h-2.5l-0.6,2.2
					c0,0.1-0.1,0.1-0.2,0.1h-0.6c-0.1,0-0.2-0.1-0.2-0.2c0,0,0-0.1,0-0.1l1.8-6.4c0.1-0.5,0.5-0.7,1-0.7c0.5,0,0.8,0.2,1,0.7
					L309.2,195.6C309.2,195.6,309.2,195.6,309.2,195.6z M307.5,192.6l-0.9-3.2c0-0.1-0.1-0.2-0.2-0.2c-0.1,0-0.2,0.1-0.2,0.2
					l-0.9,3.2H307.5z"/>
				<path class="st0" d="M315.1,195.5c0,0.1,0,0.1-0.1,0.2c-0.1,0.1-0.1,0.1-0.2,0.1h-0.6c-0.2,0-0.3-0.1-0.3-0.2l-3-5.7
					c0,0,0,0,0,0c0,0,0,0,0,0v5.7c0,0.1,0,0.1-0.1,0.1c0,0-0.1,0.1-0.1,0.1h-0.5c-0.1,0-0.2,0-0.2-0.1v-6.9c0-0.1,0-0.1,0.1-0.2
					c0.1-0.1,0.1-0.1,0.2-0.1h0.5c0.1,0,0.2,0,0.3,0s0.1,0.1,0.1,0.2l3,5.7l0,0c0,0,0,0,0,0v-5.7c0-0.1,0-0.1,0.1-0.1
					c0,0,0.1-0.1,0.1-0.1h0.5c0.1,0,0.2,0.1,0.2,0.2V195.5z"/>
				<path class="st0" d="M321,188.7c0,0,0,0.1,0,0.1l-1.5,3.4c-0.2,0.3-0.3,0.6-0.5,0.6v2.8c0,0.1,0,0.1-0.1,0.1
					c0,0-0.1,0.1-0.1,0.1h-0.5c0,0-0.1,0-0.1-0.1c0,0-0.1-0.1-0.1-0.1v-2.8c-0.2-0.1-0.4-0.3-0.5-0.6l-1.5-3.4c0,0,0-0.1,0-0.1
					c0-0.1,0.1-0.1,0.2-0.1h0.6c0.1,0,0.1,0,0.2,0.1l1.3,3.2c0.1,0.2,0.1,0.3,0.2,0.3s0.2-0.1,0.2-0.3l1.4-3.2
					c0-0.1,0.1-0.1,0.2-0.1h0.6C320.9,188.5,321,188.6,321,188.7z"/>
				<path class="st0" d="M328.2,193.9c0,0.3,0,0.5-0.1,0.7c-0.1,0.2-0.2,0.4-0.4,0.6c-0.2,0.2-0.4,0.4-0.7,0.5
					c-0.3,0.1-0.7,0.2-1.2,0.2c-0.5,0-1,0-1.6-0.1c-0.1,0-0.1,0-0.2-0.1c0,0,0-0.1,0-0.1v-0.4c0-0.1,0.1-0.2,0.2-0.2h0
					c0.4,0,1,0.1,1.6,0.1c0.6,0,0.9-0.1,1.2-0.3c0.2-0.2,0.3-0.5,0.3-0.9c0-0.2-0.1-0.4-0.2-0.6c-0.2-0.2-0.5-0.4-0.9-0.7l-0.9-0.6
					c-0.5-0.3-0.8-0.6-1-0.8c-0.2-0.3-0.3-0.6-0.3-1c0-1.2,0.8-1.7,2.3-1.7c0.6,0,1.2,0,1.7,0.1c0.1,0,0.2,0.1,0.2,0.2v0.4
					c0,0.1-0.1,0.2-0.2,0.2h0c-0.6,0-1.1-0.1-1.7-0.1c-0.5,0-0.9,0.1-1.1,0.2c-0.2,0.1-0.3,0.4-0.3,0.7c0,0.2,0.1,0.4,0.2,0.6
					c0.2,0.2,0.4,0.4,0.8,0.6l0.9,0.5c0.6,0.3,1,0.6,1.2,1S328.2,193.5,328.2,193.9z"/>
				<path class="st0" d="M334.1,193.2c0,1.8-0.8,2.7-2.5,2.7c-1.7,0-2.5-0.9-2.5-2.7v-4.4c0-0.1,0-0.1,0.1-0.1c0,0,0.1-0.1,0.1-0.1
					h0.5c0.1,0,0.1,0,0.1,0.1c0,0,0.1,0.1,0.1,0.1v4.4c0,0.7,0.1,1.1,0.4,1.5c0.2,0.3,0.7,0.5,1.2,0.5c0.6,0,1-0.2,1.2-0.5
					c0.2-0.3,0.4-0.8,0.4-1.5v-4.4c0-0.1,0-0.1,0.1-0.1c0,0,0.1-0.1,0.1-0.1h0.5c0.1,0,0.1,0,0.1,0.1s0.1,0.1,0.1,0.1V193.2z"/>
				<path class="st0" d="M340.4,195.7c0,0.1,0,0.1-0.1,0.1h-0.6c-0.1,0-0.2,0-0.3-0.1l-1.7-2.9h-0.1h-0.2c-0.2,0-0.6,0-1.1,0v2.9
					c0,0.1,0,0.1,0,0.1c0,0-0.1,0.1-0.1,0.1h-0.5c0,0-0.1,0-0.1-0.1c0,0-0.1-0.1-0.1-0.1v-6.8c0-0.1,0.1-0.2,0.2-0.2
					c0.4-0.1,1-0.1,1.7-0.1c1.8,0,2.7,0.7,2.7,2.1v0.1c0,0.5-0.1,1-0.4,1.3c-0.3,0.3-0.6,0.6-1.1,0.7L340.4,195.7
					C340.3,195.6,340.4,195.6,340.4,195.7z M339.2,190.6L339.2,190.6c0-0.5-0.2-0.9-0.5-1.1s-0.8-0.3-1.4-0.3c-0.6,0-0.9,0-1.1,0
					v2.7c0.6,0,0.9,0,1.1,0c0.6,0,1.1-0.1,1.4-0.3S339.2,191.1,339.2,190.6z"/>
				<path class="st0" d="M345.3,192.2c0,0.1,0,0.1-0.1,0.1s-0.1,0.1-0.1,0.1h-3v3.2c0,0.1,0,0.1-0.1,0.1s-0.1,0.1-0.1,0.1h-0.5
					c-0.1,0-0.1,0-0.1-0.1s-0.1-0.1-0.1-0.1v-5.3c0-0.6,0.2-1.1,0.5-1.4s0.9-0.4,1.6-0.4c0.9,0,1.5,0,1.9,0.1c0.1,0,0.1,0.1,0.1,0.1
					v0.5c0,0.1,0,0.1-0.1,0.1h-1.9c-0.5,0-0.8,0.1-1,0.2c-0.2,0.1-0.2,0.4-0.2,0.8v1.4h3c0.1,0,0.1,0,0.1,0.1s0.1,0.1,0.1,0.1V192.2
					z"/>
				<path class="st0" d="M351.5,195.6c0,0.1-0.1,0.2-0.2,0.2h-0.6c-0.1,0-0.1,0-0.2-0.1l-0.6-2.2h-2.5l-0.6,2.2
					c0,0.1-0.1,0.1-0.2,0.1h-0.6c-0.1,0-0.2-0.1-0.2-0.2c0,0,0-0.1,0-0.1l1.8-6.4c0.1-0.5,0.5-0.7,1-0.7c0.5,0,0.8,0.2,1,0.7
					L351.5,195.6C351.5,195.6,351.5,195.6,351.5,195.6z M349.8,192.6l-0.9-3.2c0-0.1-0.1-0.2-0.2-0.2c-0.1,0-0.2,0.1-0.2,0.2
					l-0.9,3.2H349.8z"/>
				<path class="st0" d="M356.6,195.5c0,0.1-0.1,0.2-0.2,0.2c-0.4,0.1-1,0.1-1.6,0.1c-0.3,0-0.6,0-0.9-0.1c-0.3-0.1-0.6-0.3-0.8-0.5
					c-0.3-0.2-0.5-0.5-0.6-0.9c-0.2-0.4-0.2-0.9-0.2-1.5v-1.4c0-0.6,0.1-1.1,0.2-1.5c0.2-0.4,0.4-0.7,0.6-0.9
					c0.3-0.2,0.5-0.4,0.8-0.5c0.3-0.1,0.6-0.1,0.9-0.1c0.4,0,1,0.1,1.6,0.2c0.1,0,0.2,0.1,0.2,0.1v0.5c0,0.1,0,0.1-0.1,0.1h0
					c-0.7-0.1-1.2-0.1-1.6-0.1c-1.1,0-1.7,0.7-1.7,2.2v1.4c0,0.8,0.2,1.3,0.5,1.7c0.3,0.4,0.7,0.5,1.2,0.5c0.4,0,1,0,1.6-0.1h0
					c0.1,0,0.2,0.1,0.2,0.2V195.5z"/>
				<path class="st0" d="M361.5,195.7c0,0.1,0,0.1-0.1,0.1c-0.3,0-0.9,0-1.9,0c-0.7,0-1.2-0.1-1.6-0.4s-0.5-0.7-0.5-1.4v-3.8
					c0-0.6,0.2-1.1,0.5-1.4s0.9-0.4,1.6-0.4c0.9,0,1.5,0,1.9,0.1c0.1,0,0.1,0.1,0.1,0.1v0.5c0,0.1,0,0.1-0.1,0.1h-1.9
					c-0.5,0-0.8,0.1-1,0.2c-0.2,0.1-0.2,0.4-0.2,0.8v1.4h3c0.1,0,0.1,0,0.1,0.1s0.1,0.1,0.1,0.1v0.4c0,0.1,0,0.1-0.1,0.1
					s-0.1,0.1-0.1,0.1h-3v1.6c0,0.4,0.1,0.7,0.2,0.8c0.2,0.1,0.5,0.2,1,0.2h1.9c0.1,0,0.1,0,0.1,0.1V195.7z"/>
			</g>
			<g id="BRICKS_1_">
				<g>
					<rect x="323" y="165.9" class="st0" width="19.1" height="5.8"/>
				</g>
				<g>
					<rect x="323" y="159" class="st0" width="9" height="5.8"/>
				</g>
				<g>
					<rect x="323" y="172.8" class="st0" width="9" height="5.8"/>
				</g>
				<g>
					<rect x="333.1" y="172.8" class="st0" width="9" height="5.8"/>
				</g>
				<g>
					<rect x="333.1" y="159" class="st0" width="9" height="5.8"/>
				</g>
			</g>
		</g>
		<g>
			<g id="magnetic_1_">
				<g>
					<g>
						<path class="st0" d="M95.8,99.1c0,0.3-0.1,0.5-0.3,0.7c-0.2,0.2-0.4,0.3-0.7,0.3h-2.4c-0.3,0-0.5-0.1-0.7-0.3
							c-0.2-0.2-0.3-0.4-0.3-0.7V81.2c0-3.6-1.5-5.4-4.6-5.4c-1.6,0-3.6,0.5-5.9,1.4c0.3,1.1,0.5,2.4,0.5,4v18
							c0,0.3-0.1,0.5-0.3,0.7c-0.2,0.2-0.4,0.3-0.7,0.3h-2.7c-0.6,0-0.9-0.3-0.9-1v-18c0-2.1-0.3-3.5-0.9-4.2
							c-0.6-0.7-1.6-1.1-3-1.1c-1.5,0-3.5,0.7-6.2,2v21.4c0,0.3-0.1,0.5-0.3,0.7c-0.2,0.2-0.4,0.3-0.7,0.3h-2.7
							c-0.6,0-0.9-0.3-0.9-1V73.3c0-0.3,0.1-0.5,0.3-0.7c0.2-0.2,0.4-0.3,0.7-0.3h2.5c0.3,0,0.5,0.1,0.7,0.3
							c0.2,0.2,0.3,0.4,0.3,0.7v1c2.5-1.6,5-2.4,7.4-2.4c2.2,0,3.9,0.7,5.1,2.1c2.9-1.4,5.7-2.1,8.4-2.1c5.5,0,8.2,3.1,8.2,9.3V99.1
							z"/>
					</g>
				</g>
				<g>
					<g>
						<path class="st0" d="M120.8,99.1c0,0.3-0.1,0.5-0.3,0.7c-0.2,0.2-0.4,0.3-0.7,0.3h-2.3c-0.3,0-0.5-0.1-0.7-0.3
							c-0.2-0.2-0.3-0.4-0.3-0.7V98c-2.8,1.7-5.4,2.5-7.8,2.5c-2.4,0-4.4-0.6-6-1.9c-1.5-1.3-2.3-3.4-2.3-6.3v-0.6
							c0-2.8,0.9-4.9,2.8-6.2c1.9-1.3,5-2,9.4-2h3.7v-2c0-2.1-0.4-3.6-1.2-4.5c-0.8-0.8-2.2-1.3-4.2-1.3c-2.5,0-5,0.1-7.7,0.4H103
							c-0.6,0-0.9-0.3-0.9-0.8v-1.8c0-0.5,0.4-0.9,1.1-1c2.6-0.4,5.2-0.7,7.9-0.7c6.6,0,9.9,3.2,9.9,9.5V99.1z M116.4,94.8v-8.2
							h-3.7c-3,0-5,0.4-6.1,1.1c-1.1,0.7-1.6,2-1.6,3.9v0.6c0,1.7,0.4,2.9,1.1,3.6c0.8,0.7,1.9,1,3.5,1
							C111.6,96.8,113.9,96.2,116.4,94.8z"/>
					</g>
				</g>
				<g>
					<g>
						<path class="st0" d="M149.6,74.7c0,0.5-0.3,0.9-0.9,1l-1.8,0.4c1.1,1.2,1.7,3,1.7,5.2v0.4c0,5.8-3.7,8.7-11.2,8.7
							c-2.3,0-4.3-0.3-5.9-1c-0.8,0.4-1.3,1-1.3,1.7c0,0.8,0.5,1.4,1.6,1.6l7.5,1.9c1.2,0.3,2.2,0.6,3,0.8c0.8,0.2,1.6,0.6,2.6,1
							c1,0.4,1.7,0.9,2.2,1.3c0.5,0.5,1,1.1,1.4,1.8c0.4,0.7,0.6,1.6,0.6,2.5v0.4c0,5.2-3.8,7.9-11.5,7.9c-3.9,0-6.8-0.7-8.8-2.1
							c-1.9-1.4-2.9-3.4-2.9-6v-0.5c0-2.7,1.1-4.8,3.2-6.4l-0.4-0.2c-1.6-0.7-2.3-2-2.3-4v-0.1c0-1.7,0.7-2.9,2.1-3.6
							c-1.6-1.5-2.3-3.4-2.3-5.9v-0.4c0-2.6,0.9-4.7,2.6-6.4c1.7-1.7,4.6-2.5,8.6-2.5h11.1c0.3,0,0.6,0.1,0.8,0.3
							c0.2,0.2,0.4,0.5,0.4,0.8V74.7z M144.5,102.4V102c0-0.9-0.4-1.7-1.3-2.2c-0.9-0.5-2.5-1.1-4.9-1.7l-5.7-1.5
							c-0.8,0.7-1.5,1.4-1.9,2.2c-0.4,0.8-0.6,1.7-0.6,3v0.5c0,1.5,0.5,2.7,1.6,3.4c1.1,0.8,3,1.2,5.6,1.2c2.7,0,4.6-0.4,5.6-1.1
							C144,105.1,144.5,103.9,144.5,102.4z M144.1,81.7v-0.4c0-1.7-0.5-3-1.5-4c-1-1-2.8-1.4-5.3-1.4c-2.6,0-4.4,0.5-5.4,1.5
							c-1,1-1.5,2.3-1.5,4v0.4c0,3.4,2.3,5.2,6.8,5.2c2.6,0,4.3-0.4,5.3-1.3C143.6,84.6,144.1,83.3,144.1,81.7z"/>
					</g>
				</g>
				<g>
					<g>
						<path class="st0" d="M174.9,99.1c0,0.3-0.1,0.5-0.3,0.7c-0.2,0.2-0.4,0.3-0.7,0.3h-2.4c-0.3,0-0.5-0.1-0.7-0.3
							c-0.2-0.2-0.3-0.4-0.3-0.7V82.5c0-2.5-0.4-4.2-1.3-5.2c-0.9-1-2.3-1.5-4.3-1.5c-1.9,0-4.2,0.7-6.8,2v21.4
							c0,0.3-0.1,0.5-0.3,0.7c-0.2,0.2-0.4,0.3-0.7,0.3h-2.5c-0.3,0-0.5-0.1-0.7-0.3c-0.2-0.2-0.3-0.4-0.3-0.7V73.3
							c0-0.3,0.1-0.5,0.3-0.7c0.2-0.2,0.4-0.3,0.7-0.3h2.5c0.3,0,0.5,0.1,0.7,0.3c0.2,0.2,0.3,0.4,0.3,0.7v1
							c2.8-1.6,5.5-2.3,8.1-2.3c5.9,0,8.8,3.5,8.8,10.5V99.1z"/>
					</g>
				</g>
				<g>
					<g>
						<path class="st0" d="M202.1,86.5c0,0.7-0.3,1.1-1,1.1h-17v0.7c0,2.9,0.6,5,1.7,6.3c1.1,1.3,2.9,1.9,5.3,1.9
							c3.6,0,6.6-0.2,9-0.6h0.3c0.5,0,0.8,0.2,0.8,0.7v1.7c0,0.6-0.3,1-1,1.2c-3,0.6-6,0.9-9.1,0.9c-1.6,0-3-0.2-4.3-0.6
							c-1.3-0.4-2.5-1-3.6-1.9c-1.1-0.9-2-2.1-2.6-3.8c-0.6-1.6-1-3.6-1-5.8v-4.6c0-3.7,1-6.6,2.9-8.7c2-2.1,4.7-3.2,8.3-3.2
							c3.6,0,6.4,1.1,8.3,3.2c1.9,2.1,2.9,5,2.9,8.7V86.5z M197.6,84.2v-0.5c0-2.8-0.5-4.8-1.6-6.1c-1.1-1.2-2.8-1.9-5-1.9
							c-4.5,0-6.8,2.7-6.8,8v0.5H197.6z"/>
					</g>
				</g>
				<g>
					<g>
						<path class="st0" d="M221.7,99.4c0,0.5-0.3,0.8-0.9,0.9c-1.1,0.2-2.2,0.3-3.3,0.3c-2.5,0-4.2-0.5-5.3-1.4
							c-1.1-0.9-1.6-2.7-1.6-5.4V76l-4.9-0.6c-0.6-0.1-1-0.4-1-0.9v-1.4c0-0.6,0.3-0.9,1-0.9h4.9v-5c0-0.6,0.3-0.9,0.9-1l2.6-0.4
							h0.2c0.5,0,0.8,0.3,0.8,0.9v5.5h5.5c0.3,0,0.5,0.1,0.7,0.3c0.2,0.2,0.3,0.4,0.3,0.7V75c0,0.3-0.1,0.5-0.3,0.7
							c-0.2,0.2-0.4,0.3-0.7,0.3h-5.5v17.7c0,1.4,0.2,2.2,0.6,2.6c0.4,0.4,1.1,0.6,2.2,0.6h2.8c0.7,0,1.1,0.2,1.1,0.7V99.4z"/>
					</g>
				</g>
				<g>
					<g>
						<path class="st0" d="M230.3,66.8c0,0.3-0.1,0.5-0.3,0.7c-0.2,0.2-0.4,0.3-0.7,0.3h-2.6c-0.3,0-0.5-0.1-0.7-0.3
							c-0.2-0.2-0.3-0.4-0.3-0.7v-4.1c0-0.3,0.1-0.5,0.3-0.7c0.2-0.2,0.4-0.3,0.7-0.3h2.6c0.3,0,0.5,0.1,0.7,0.3
							c0.2,0.2,0.3,0.4,0.3,0.7V66.8z M230.2,99.1c0,0.3-0.1,0.5-0.3,0.7c-0.2,0.2-0.4,0.3-0.7,0.3h-2.4c-0.3,0-0.5-0.1-0.7-0.3
							c-0.2-0.2-0.3-0.4-0.3-0.7V73.3c0-0.3,0.1-0.5,0.3-0.7c0.2-0.2,0.4-0.3,0.7-0.3h2.4c0.3,0,0.5,0.1,0.7,0.3
							c0.2,0.2,0.3,0.4,0.3,0.7V99.1z"/>
					</g>
				</g>
				<g>
					<g>
						<path class="st0" d="M253.7,98.8c0,0.6-0.3,1-1,1.1c-2,0.4-4.1,0.6-6.3,0.6c-3.4,0-6.1-1.1-8-3.3c-1.9-2.2-2.8-5.2-2.8-9v-4
							c0-3.8,0.9-6.8,2.8-9c1.9-2.2,4.5-3.3,8-3.3c2.2,0,4.3,0.2,6.3,0.6c0.4,0.1,0.7,0.2,0.8,0.3c0.1,0.2,0.2,0.4,0.2,0.8v1.8
							c0,0.5-0.3,0.8-0.9,0.8h-0.2c-2.1-0.2-4.2-0.4-6.3-0.4c-4.2,0-6.3,2.8-6.3,8.4v4c0,5.6,2.1,8.4,6.3,8.4c2.1,0,4.2-0.1,6.3-0.4
							h0.2c0.6,0,0.9,0.3,0.9,0.8V98.8z"/>
					</g>
				</g>
			</g>
			<g>
				<g id="TM_1_" class="st1">
					<g>
						<path class="st0" d="M371.3,73c0,0.1,0,0.1-0.1,0.1H370v3.4c0,0,0,0.1,0,0.1c0,0,0,0-0.1,0h-0.3c0,0-0.1,0-0.1,0
							c0,0,0,0,0-0.1v-3.4h-1.1c-0.1,0-0.1,0-0.1-0.1v-0.2c0,0,0,0,0-0.1c0,0,0.1,0,0.1,0h2.8c0.1,0,0.1,0,0.1,0.1V73z"/>
					</g>
					<g>
						<path class="st0" d="M375.4,76.5C375.4,76.5,375.3,76.5,375.4,76.5c-0.1,0.1-0.1,0.1-0.1,0.1h-0.3c0,0-0.1,0-0.1,0
							c0,0,0,0,0-0.1v-3.1c0,0,0,0,0,0s0,0,0,0l-0.8,1.5c0,0.1-0.1,0.1-0.1,0.1c0,0-0.1,0-0.2,0h-0.3c-0.1,0-0.1,0-0.2,0
							c0,0-0.1-0.1-0.1-0.1l-0.8-1.5c0,0,0,0,0,0s0,0,0,0v3.1c0,0,0,0.1,0,0.1c0,0-0.1,0-0.1,0h-0.3c0,0-0.1,0-0.1,0c0,0,0,0,0-0.1
							v-3.6c0,0,0-0.1,0-0.1c0,0,0.1,0,0.1,0h0.4c0.1,0,0.2,0,0.2,0.1l1,1.8c0,0,0,0.1,0.1,0.1s0.1,0,0.1-0.1l1-1.8
							c0-0.1,0.1-0.1,0.2-0.1h0.4c0,0,0.1,0,0.1,0c0,0,0,0.1,0,0.1V76.5z"/>
					</g>
				</g>
				<g>
					<g>
						<path class="st0" d="M282.2,97.9c0,0.5-0.2,1-0.5,1.3c-0.3,0.3-0.7,0.5-1.2,0.5c-0.6,0-1.1-0.1-1.3-0.3
							c-0.3-0.2-0.5-0.5-0.7-0.8l-12.8-24.2c-0.1-0.2-0.2-0.3-0.3-0.3c-0.1,0-0.2,0.1-0.2,0.3v24.4c0,0.2-0.1,0.4-0.2,0.5
							c-0.1,0.1-0.3,0.2-0.5,0.2h-0.4c-0.2,0-0.3-0.1-0.5-0.2c-0.1-0.1-0.2-0.3-0.2-0.5V74.5c0-0.5,0.2-0.9,0.5-1.3
							c0.3-0.3,0.8-0.5,1.3-0.5c0.8,0,1.4,0.4,1.8,1.1L280,98c0.1,0.2,0.2,0.3,0.3,0.3c0.1,0,0.2-0.1,0.2-0.3V73.6
							c0-0.5,0.2-0.7,0.6-0.7h0.5c0.4,0,0.6,0.2,0.6,0.7V97.9z"/>
					</g>
					<g>
						<path class="st0" d="M306,88.4c0,3.8-0.9,6.7-2.6,8.5c-1.7,1.9-4.1,2.8-7.1,2.8c-3,0-5.4-0.9-7.1-2.8
							c-1.7-1.9-2.6-4.7-2.6-8.5V84c0-3.8,0.9-6.7,2.6-8.5c1.7-1.9,4.1-2.8,7.1-2.8c3,0,5.4,0.9,7.1,2.8c1.7,1.9,2.6,4.7,2.6,8.5
							V88.4z M304.3,88.4V84c0-6.5-2.7-9.8-8.1-9.8c-5.4,0-8.1,3.3-8.1,9.8v4.4c0,6.5,2.7,9.8,8.1,9.8
							C301.7,98.2,304.3,95,304.3,88.4z"/>
					</g>
					<g>
						<path class="st0" d="M327.9,73.8c0,0.4-0.2,0.5-0.7,0.5h-8.1v24.5c0,0.2-0.1,0.4-0.2,0.5c-0.1,0.1-0.3,0.2-0.5,0.2H318
							c-0.2,0-0.3-0.1-0.5-0.2c-0.1-0.1-0.2-0.3-0.2-0.5V74.4h-8.2c-0.5,0-0.7-0.2-0.7-0.5v-0.3c0-0.4,0.2-0.6,0.7-0.6h18
							c0.5,0,0.7,0.2,0.7,0.6V73.8z"/>
					</g>
					<g>
						<path class="st0" d="M346.3,98.9c0,0.4-0.2,0.6-0.7,0.6h-9.8c-1.5,0-2.7-0.3-3.4-0.9c-0.8-0.6-1.2-1.6-1.2-3.1V76.9
							c0-1.5,0.4-2.5,1.2-3.1s1.9-0.9,3.4-0.9h9.8c0.5,0,0.7,0.2,0.7,0.6v0.3c0,0.4-0.2,0.6-0.7,0.6h-9.8c-1,0-1.8,0.2-2.2,0.5
							c-0.5,0.3-0.7,1-0.7,2v7.9h12.7c0.5,0,0.7,0.2,0.7,0.6v0.4c0,0.4-0.2,0.6-0.7,0.6h-12.7v9.2c0,1,0.2,1.7,0.7,2
							c0.5,0.3,1.2,0.5,2.2,0.5h9.8c0.5,0,0.7,0.2,0.7,0.6V98.9z"/>
					</g>
					<g>
						<path class="st0" d="M365.5,92.9c0,4.6-2.9,6.8-8.8,6.8c-2.1,0-4-0.1-5.5-0.4c-0.7-0.1-1-0.3-1-0.8v-0.1
							c0-0.5,0.3-0.7,0.9-0.6c2,0.2,3.9,0.4,5.7,0.4c2.7,0,4.5-0.5,5.5-1.4c1-0.9,1.5-2.3,1.5-3.9c0-0.5,0-0.8-0.1-1.2
							c-0.1-0.3-0.2-0.7-0.5-1c-0.3-0.3-0.5-0.6-0.7-0.9c-0.2-0.2-0.6-0.5-1.2-0.9c-0.6-0.4-1.1-0.7-1.4-0.9c-0.4-0.2-1-0.6-1.9-1.1
							l-2.4-1.4c-2.1-1.2-3.6-2.3-4.5-3.3c-0.9-1-1.4-2.3-1.4-3.9c0-1.1,0.2-2,0.7-2.7c0.5-0.8,1.2-1.3,2.1-1.7
							c0.9-0.4,1.8-0.7,2.8-0.9c1-0.2,2.1-0.3,3.3-0.3c1.9,0,3.6,0.1,5.3,0.3c0.7,0.1,1,0.3,1,0.7v0.2c0,0.5-0.4,0.6-1.2,0.6
							c-1.8-0.2-3.5-0.3-5.2-0.3c-4.8,0-7.1,1.3-7.1,4c0,1.2,0.4,2.2,1.2,3c0.8,0.8,2.1,1.7,4,2.8l2.4,1.4c2.5,1.4,4.2,2.6,5.2,3.6
							C365,90,365.5,91.3,365.5,92.9z"/>
					</g>
				</g>
			</g>
		</g>
		<g>
			<path class="st0" d="M130.7,121.3c0,2.1-1.3,3.2-4,3.2c-0.3,0-0.8,0-1.4-0.1v4c0,0.1,0,0.1-0.1,0.2c0,0.1-0.1,0.1-0.2,0.1h-0.8
				c-0.1,0-0.1,0-0.2-0.1c-0.1-0.1-0.1-0.1-0.1-0.2v-10c0-0.2,0.1-0.3,0.3-0.4c0.7-0.1,1.5-0.1,2.4-0.1c2.7,0,4,1,4,3.1V121.3z
				 M129.4,121.3v-0.2c0-0.7-0.2-1.2-0.7-1.5c-0.4-0.3-1.1-0.5-2.1-0.5c-0.5,0-1,0-1.4,0.1v4.2c0.9,0,1.4,0.1,1.4,0.1
				c1,0,1.7-0.2,2.1-0.5S129.4,122,129.4,121.3z"/>
			<path class="st0" d="M137.7,128.5c0,0.1,0,0.1-0.1,0.2s-0.1,0.1-0.2,0.1h-0.7c-0.1,0-0.1,0-0.2-0.1c-0.1-0.1-0.1-0.1-0.1-0.2
				v-0.3c-0.8,0.5-1.5,0.7-2.2,0.7c-0.7,0-1.3-0.2-1.7-0.5c-0.4-0.4-0.7-1-0.7-1.8v-0.2c0-0.8,0.3-1.4,0.8-1.8s1.4-0.6,2.7-0.6h1.1
				v-0.6c0-0.6-0.1-1-0.3-1.3c-0.2-0.2-0.6-0.4-1.2-0.4c-0.7,0-1.4,0-2.2,0.1h-0.1c-0.2,0-0.3-0.1-0.3-0.2v-0.5
				c0-0.2,0.1-0.2,0.3-0.3c0.7-0.1,1.5-0.2,2.2-0.2c1.9,0,2.8,0.9,2.8,2.7V128.5z M136.4,127.3v-2.3h-1.1c-0.9,0-1.4,0.1-1.7,0.3
				s-0.5,0.6-0.5,1.1v0.2c0,0.5,0.1,0.8,0.3,1c0.2,0.2,0.5,0.3,1,0.3C135,127.8,135.7,127.6,136.4,127.3z"/>
			<path class="st0" d="M145.5,125.3c0,1.1-0.3,2-0.8,2.6c-0.5,0.6-1.3,0.9-2.3,0.9c-0.5,0-1.1-0.1-1.7-0.2v2.6c0,0.1,0,0.1-0.1,0.2
				s-0.1,0.1-0.2,0.1h-0.7c-0.1,0-0.1,0-0.2-0.1s-0.1-0.1-0.1-0.2v-9.9c0-0.1,0-0.2,0.1-0.2c0,0,0.1-0.1,0.2-0.1
				c0.9-0.2,1.8-0.3,2.6-0.3c1,0,1.8,0.3,2.4,0.9c0.5,0.6,0.8,1.5,0.8,2.6V125.3z M144.2,125.3v-1c0-0.8-0.1-1.4-0.4-1.8
				c-0.3-0.4-0.8-0.6-1.4-0.6c-0.6,0-1.1,0-1.7,0.1v5.7c0.5,0.1,1.1,0.1,1.7,0.1c0.7,0,1.2-0.2,1.4-0.6
				C144.1,126.8,144.2,126.2,144.2,125.3z"/>
			<path class="st0" d="M153.1,124.9c0,0.2-0.1,0.3-0.3,0.3H148v0.2c0,0.8,0.2,1.4,0.5,1.8c0.3,0.4,0.8,0.5,1.5,0.5
				c1,0,1.9-0.1,2.6-0.2h0.1c0.2,0,0.2,0.1,0.2,0.2v0.5c0,0.2-0.1,0.3-0.3,0.3c-0.8,0.2-1.7,0.2-2.6,0.2c-0.4,0-0.8-0.1-1.2-0.2
				c-0.4-0.1-0.7-0.3-1-0.5c-0.3-0.2-0.6-0.6-0.7-1.1s-0.3-1-0.3-1.7v-1.3c0-1,0.3-1.9,0.8-2.5s1.3-0.9,2.4-0.9c1,0,1.8,0.3,2.4,0.9
				c0.5,0.6,0.8,1.4,0.8,2.5V124.9z M151.8,124.3v-0.1c0-0.8-0.2-1.4-0.5-1.7c-0.3-0.4-0.8-0.5-1.4-0.5c-1.3,0-1.9,0.8-1.9,2.3v0.1
				H151.8z"/>
			<path class="st0" d="M158.1,121.6c0,0.2-0.1,0.2-0.3,0.2c-0.7,0-1.3,0.2-2,0.6v6c0,0.1,0,0.1-0.1,0.2s-0.1,0.1-0.2,0.1h-0.7
				c-0.1,0-0.1,0-0.2-0.1s-0.1-0.1-0.1-0.2v-7.3c0-0.1,0-0.1,0.1-0.2s0.1-0.1,0.2-0.1h0.7c0.1,0,0.1,0,0.2,0.1s0.1,0.1,0.1,0.2v0.3
				c0.7-0.5,1.3-0.7,2-0.7c0.2,0,0.3,0.1,0.3,0.3V121.6z"/>
			<path class="st0" d="M169.6,119c0,0.2-0.1,0.2-0.3,0.2h-2.8v9.3c0,0.1,0,0.1-0.1,0.2c0,0.1-0.1,0.1-0.2,0.1h-0.8
				c-0.1,0-0.1,0-0.2-0.1s-0.1-0.1-0.1-0.2v-9.3h-2.8c-0.2,0-0.3-0.1-0.3-0.2v-0.6c0-0.1,0-0.1,0.1-0.2s0.1-0.1,0.2-0.1h6.9
				c0.2,0,0.3,0.1,0.3,0.3V119z"/>
			<path class="st0" d="M177,128.5c0,0.1,0,0.1-0.1,0.2s-0.1,0.1-0.2,0.1H176c-0.1,0-0.1,0-0.2-0.1s-0.1-0.1-0.1-0.2v-4.7
				c0-0.7-0.1-1.2-0.4-1.5s-0.6-0.4-1.1-0.4c-0.7,0-1.4,0.1-2,0.4v6.2c0,0.1,0,0.1-0.1,0.2s-0.1,0.1-0.2,0.1h-0.7
				c-0.1,0-0.1,0-0.2-0.1s-0.1-0.1-0.1-0.2v-10.2c0-0.1,0-0.1,0.1-0.2s0.1-0.1,0.2-0.1h0.7c0.1,0,0.1,0,0.2,0.1s0.1,0.1,0.1,0.2v3
				c0.7-0.3,1.4-0.4,2.2-0.4c0.8,0,1.4,0.2,1.9,0.7c0.5,0.5,0.7,1.2,0.7,2.3V128.5z"/>
			<path class="st0" d="M184.2,128.5c0,0.1,0,0.1-0.1,0.2s-0.1,0.1-0.2,0.1h-0.7c-0.1,0-0.1,0-0.2-0.1c-0.1-0.1-0.1-0.1-0.1-0.2
				v-0.3c-0.8,0.5-1.5,0.7-2.2,0.7c-0.7,0-1.3-0.2-1.7-0.5c-0.4-0.4-0.7-1-0.7-1.8v-0.2c0-0.8,0.3-1.4,0.8-1.8s1.4-0.6,2.7-0.6h1.1
				v-0.6c0-0.6-0.1-1-0.3-1.3c-0.2-0.2-0.6-0.4-1.2-0.4c-0.7,0-1.4,0-2.2,0.1h-0.1c-0.2,0-0.3-0.1-0.3-0.2v-0.5
				c0-0.2,0.1-0.2,0.3-0.3c0.7-0.1,1.5-0.2,2.2-0.2c1.9,0,2.8,0.9,2.8,2.7V128.5z M183,127.3v-2.3h-1.1c-0.9,0-1.4,0.1-1.7,0.3
				s-0.5,0.6-0.5,1.1v0.2c0,0.5,0.1,0.8,0.3,1c0.2,0.2,0.5,0.3,1,0.3C181.6,127.8,182.3,127.6,183,127.3z"/>
			<path class="st0" d="M190.2,128.6c0,0.1-0.1,0.2-0.3,0.2c-0.3,0-0.6,0.1-0.9,0.1c-0.7,0-1.2-0.1-1.5-0.4
				c-0.3-0.3-0.5-0.8-0.5-1.5v-5l-1.4-0.2c-0.2,0-0.3-0.1-0.3-0.3v-0.4c0-0.2,0.1-0.3,0.3-0.3h1.4v-1.4c0-0.2,0.1-0.3,0.3-0.3
				l0.7-0.1h0c0.1,0,0.2,0.1,0.2,0.2v1.6h1.6c0.1,0,0.1,0,0.2,0.1s0.1,0.1,0.1,0.2v0.5c0,0.1,0,0.1-0.1,0.2s-0.1,0.1-0.2,0.1h-1.6v5
				c0,0.4,0.1,0.6,0.2,0.7s0.3,0.2,0.6,0.2h0.8c0.2,0,0.3,0.1,0.3,0.2V128.6z"/>
			<path class="st0" d="M201,128.4c0,0.2-0.1,0.2-0.3,0.3c-0.7,0.1-1.4,0.2-2.4,0.2c-0.5,0-0.9-0.1-1.4-0.2
				c-0.4-0.1-0.8-0.4-1.2-0.7c-0.4-0.3-0.7-0.8-0.9-1.4c-0.2-0.6-0.3-1.3-0.3-2.2v-2c0-0.8,0.1-1.6,0.3-2.2c0.2-0.6,0.5-1.1,0.9-1.4
				c0.4-0.3,0.8-0.5,1.2-0.7c0.4-0.1,0.9-0.2,1.3-0.2c0.6,0,1.4,0.1,2.4,0.2c0.2,0,0.2,0.1,0.2,0.2v0.7c0,0.1-0.1,0.2-0.2,0.2h0
				c-1-0.1-1.8-0.1-2.4-0.1c-1.7,0-2.5,1.1-2.5,3.3v2c0,1.1,0.2,2,0.7,2.5c0.5,0.5,1.1,0.8,1.8,0.8c0.7,0,1.5,0,2.4-0.1h0.1
				c0.2,0,0.2,0.1,0.2,0.2V128.4z"/>
			<path class="st0" d="M203.7,128.5c0,0.1,0,0.1-0.1,0.2c0,0.1-0.1,0.1-0.2,0.1h-0.7c-0.1,0-0.1,0-0.2-0.1
				c-0.1-0.1-0.1-0.1-0.1-0.2v-10.3c0-0.2,0.1-0.3,0.3-0.3h0.7c0.1,0,0.1,0,0.2,0.1c0,0.1,0.1,0.1,0.1,0.2V128.5z"/>
			<path class="st0" d="M207,119.3c0,0.1,0,0.1-0.1,0.2s-0.1,0.1-0.2,0.1H206c-0.1,0-0.1,0-0.2-0.1s-0.1-0.1-0.1-0.2v-1.2
				c0-0.1,0-0.1,0.1-0.2s0.1-0.1,0.2-0.1h0.7c0.1,0,0.1,0,0.2,0.1s0.1,0.1,0.1,0.2V119.3z M207,128.5c0,0.1,0,0.1-0.1,0.2
				c-0.1,0.1-0.1,0.1-0.2,0.1H206c-0.1,0-0.1,0-0.2-0.1s-0.1-0.1-0.1-0.2v-7.3c0-0.1,0-0.1,0.1-0.2s0.1-0.1,0.2-0.1h0.7
				c0.1,0,0.1,0,0.2,0.1c0.1,0.1,0.1,0.1,0.1,0.2V128.5z"/>
			<path class="st0" d="M215,128.5c0,0.1,0,0.1-0.1,0.2s-0.1,0.1-0.2,0.1H214c-0.1,0-0.1,0-0.2-0.1s-0.1-0.1-0.1-0.2v-4.7
				c0-0.7-0.1-1.2-0.4-1.5s-0.7-0.4-1.2-0.4c-0.5,0-1.2,0.2-1.9,0.6v6.1c0,0.1,0,0.1-0.1,0.2s-0.1,0.1-0.2,0.1h-0.7
				c-0.1,0-0.1,0-0.2-0.1s-0.1-0.1-0.1-0.2v-7.3c0-0.1,0-0.1,0.1-0.2s0.1-0.1,0.2-0.1h0.7c0.1,0,0.1,0,0.2,0.1s0.1,0.1,0.1,0.2v0.3
				c0.8-0.4,1.5-0.7,2.3-0.7c1.7,0,2.5,1,2.5,3V128.5z"/>
			<path class="st0" d="M223.3,121.5c0,0.2-0.1,0.2-0.3,0.3l-0.5,0.1c0.3,0.3,0.5,0.8,0.5,1.5v0.1c0,1.6-1.1,2.5-3.2,2.5
				c-0.7,0-1.2-0.1-1.7-0.3c-0.2,0.1-0.4,0.3-0.4,0.5c0,0.2,0.1,0.4,0.4,0.5l2.1,0.5c0.3,0.1,0.6,0.2,0.8,0.2
				c0.2,0.1,0.5,0.2,0.7,0.3s0.5,0.2,0.6,0.4c0.1,0.1,0.3,0.3,0.4,0.5s0.2,0.4,0.2,0.7v0.1c0,1.5-1.1,2.2-3.3,2.2
				c-1.1,0-1.9-0.2-2.5-0.6c-0.5-0.4-0.8-1-0.8-1.7v-0.1c0-0.8,0.3-1.4,0.9-1.8l-0.1,0c-0.4-0.2-0.7-0.6-0.7-1.1v0
				c0-0.5,0.2-0.8,0.6-1c-0.4-0.4-0.7-1-0.7-1.7v-0.1c0-0.7,0.2-1.3,0.7-1.8c0.5-0.5,1.3-0.7,2.5-0.7h3.2c0.1,0,0.2,0,0.2,0.1
				c0.1,0.1,0.1,0.1,0.1,0.2V121.5z M221.8,129.4v-0.1c0-0.3-0.1-0.5-0.4-0.6c-0.2-0.2-0.7-0.3-1.4-0.5l-1.6-0.4
				c-0.2,0.2-0.4,0.4-0.5,0.6c-0.1,0.2-0.2,0.5-0.2,0.8v0.1c0,0.4,0.2,0.8,0.5,1c0.3,0.2,0.8,0.3,1.6,0.3c0.8,0,1.3-0.1,1.6-0.3
				C221.7,130.2,221.8,129.9,221.8,129.4z M221.7,123.5v-0.1c0-0.5-0.1-0.9-0.4-1.1c-0.3-0.3-0.8-0.4-1.5-0.4
				c-0.7,0-1.2,0.1-1.5,0.4c-0.3,0.3-0.4,0.7-0.4,1.1v0.1c0,1,0.6,1.5,1.9,1.5c0.7,0,1.2-0.1,1.5-0.4
				C221.6,124.4,221.7,124,221.7,123.5z"/>
			<path class="st0" d="M229.5,126.8c0,0.7-0.2,1.2-0.7,1.6c-0.5,0.3-1.1,0.5-2,0.5c-0.9,0-1.7-0.1-2.3-0.2c-0.2,0-0.3-0.1-0.3-0.3
				v-0.5c0-0.1,0.1-0.2,0.3-0.2h0.1c0.8,0.1,1.6,0.2,2.3,0.2c0.5,0,0.8-0.1,1.1-0.2c0.2-0.2,0.3-0.4,0.3-0.8c0-0.2-0.1-0.4-0.2-0.6
				s-0.4-0.4-0.8-0.6l-1.5-0.9c-1-0.6-1.5-1.3-1.5-2.1c0-1.3,0.9-1.9,2.6-1.9c0.8,0,1.5,0.1,2.2,0.2c0.2,0,0.3,0.1,0.3,0.3v0.5
				c0,0.2-0.1,0.2-0.2,0.2h0c-0.9-0.1-1.6-0.1-2.2-0.1c-0.5,0-0.8,0.1-1,0.2s-0.3,0.3-0.3,0.7c0,0.2,0.1,0.4,0.2,0.5
				s0.4,0.3,0.8,0.6l1.4,0.8c0.6,0.3,1,0.7,1.2,1S229.5,126.4,229.5,126.8z"/>
			<path class="st0" d="M241.4,119c0,0.2-0.1,0.2-0.3,0.2h-2.8v9.3c0,0.1,0,0.1-0.1,0.2s-0.1,0.1-0.2,0.1h-0.8c-0.1,0-0.1,0-0.2-0.1
				s-0.1-0.1-0.1-0.2v-9.3h-2.8c-0.2,0-0.3-0.1-0.3-0.2v-0.6c0-0.1,0-0.1,0.1-0.2s0.1-0.1,0.2-0.1h6.9c0.2,0,0.3,0.1,0.3,0.3V119z"
				/>
			<path class="st0" d="M248.8,125.4c0,1.1-0.3,1.9-0.8,2.6c-0.6,0.6-1.3,0.9-2.4,0.9c-1,0-1.8-0.3-2.4-0.9
				c-0.5-0.6-0.8-1.5-0.8-2.6v-1.1c0-1.1,0.3-1.9,0.8-2.6c0.5-0.6,1.3-0.9,2.4-0.9c1,0,1.8,0.3,2.4,0.9c0.6,0.6,0.8,1.5,0.8,2.6
				V125.4z M247.5,125.4v-1.1c0-1.6-0.6-2.4-1.9-2.4c-1.3,0-1.9,0.8-1.9,2.4v1.1c0,1.6,0.6,2.4,1.9,2.4c0.7,0,1.1-0.2,1.5-0.6
				C247.4,126.7,247.5,126.1,247.5,125.4z"/>
			<path class="st0" d="M261.3,128.5c0,0.2-0.1,0.2-0.2,0.2h-0.8c-0.1,0-0.2-0.1-0.2-0.2l-0.9-3.3h-3.7l-0.9,3.3
				c0,0.1-0.1,0.2-0.3,0.2h-0.8c-0.2,0-0.2-0.1-0.2-0.2c0,0,0-0.1,0-0.1l2.7-9.4c0.2-0.7,0.7-1.1,1.5-1.1c0.8,0,1.3,0.4,1.5,1.1
				l2.7,9.4C261.3,128.5,261.3,128.5,261.3,128.5z M258.8,124.1l-1.3-4.7c0-0.2-0.1-0.3-0.3-0.3c-0.1,0-0.2,0.1-0.3,0.3l-1.3,4.7
				H258.8z"/>
			<path class="st0" d="M268.5,128.5c0,0.1,0,0.1-0.1,0.2s-0.1,0.1-0.2,0.1h-0.7c-0.1,0-0.1,0-0.2-0.1s-0.1-0.1-0.1-0.2v-4.7
				c0-0.7-0.1-1.2-0.4-1.5s-0.7-0.4-1.2-0.4c-0.5,0-1.2,0.2-1.9,0.6v6.1c0,0.1,0,0.1-0.1,0.2s-0.1,0.1-0.2,0.1h-0.7
				c-0.1,0-0.1,0-0.2-0.1s-0.1-0.1-0.1-0.2v-7.3c0-0.1,0-0.1,0.1-0.2s0.1-0.1,0.2-0.1h0.7c0.1,0,0.1,0,0.2,0.1s0.1,0.1,0.1,0.2v0.3
				c0.8-0.4,1.5-0.7,2.3-0.7c1.7,0,2.5,1,2.5,3V128.5z"/>
			<path class="st0" d="M275.8,121.1c0,0,0,0.1,0,0.1l-2.4,8.3c-0.2,0.8-0.5,1.4-0.9,1.7c-0.4,0.3-0.9,0.5-1.7,0.5
				c-0.4,0-0.8,0-1.2-0.1c-0.2,0-0.3-0.1-0.3-0.2v-0.5c0-0.2,0.1-0.2,0.3-0.2h0c0.6,0.1,1.1,0.1,1.3,0.1c0.4,0,0.7-0.1,0.9-0.2
				s0.4-0.5,0.5-1l0.1-0.6h-0.2c-0.3,0-0.5-0.1-0.6-0.2s-0.3-0.4-0.4-0.8l-1.9-6.6c0,0,0-0.1,0-0.1c0-0.2,0.1-0.2,0.3-0.2h0.8
				c0.1,0,0.2,0.1,0.2,0.2l1.7,6.2c0,0.2,0.1,0.3,0.3,0.3h0.2l1.8-6.6c0-0.1,0.1-0.2,0.3-0.2h0.8
				C275.7,120.9,275.8,120.9,275.8,121.1z"/>
			<path class="st0" d="M281.5,128.6c0,0.1-0.1,0.2-0.3,0.2c-0.3,0-0.6,0.1-0.9,0.1c-0.7,0-1.2-0.1-1.5-0.4
				c-0.3-0.3-0.5-0.8-0.5-1.5v-5l-1.4-0.2c-0.2,0-0.3-0.1-0.3-0.3v-0.4c0-0.2,0.1-0.3,0.3-0.3h1.4v-1.4c0-0.2,0.1-0.3,0.3-0.3
				l0.7-0.1h0c0.1,0,0.2,0.1,0.2,0.2v1.6h1.6c0.1,0,0.1,0,0.2,0.1s0.1,0.1,0.1,0.2v0.5c0,0.1,0,0.1-0.1,0.2s-0.1,0.1-0.2,0.1h-1.6v5
				c0,0.4,0.1,0.6,0.2,0.7c0.1,0.1,0.3,0.2,0.6,0.2h0.8c0.2,0,0.3,0.1,0.3,0.2V128.6z"/>
			<path class="st0" d="M288.7,128.5c0,0.1,0,0.1-0.1,0.2s-0.1,0.1-0.2,0.1h-0.7c-0.1,0-0.1,0-0.2-0.1s-0.1-0.1-0.1-0.2v-4.7
				c0-0.7-0.1-1.2-0.4-1.5c-0.3-0.3-0.6-0.4-1.1-0.4c-0.7,0-1.4,0.1-2,0.4v6.2c0,0.1,0,0.1-0.1,0.2s-0.1,0.1-0.2,0.1h-0.7
				c-0.1,0-0.1,0-0.2-0.1s-0.1-0.1-0.1-0.2v-10.2c0-0.1,0-0.1,0.1-0.2s0.1-0.1,0.2-0.1h0.7c0.1,0,0.1,0,0.2,0.1s0.1,0.1,0.1,0.2v3
				c0.7-0.3,1.4-0.4,2.2-0.4c0.8,0,1.4,0.2,1.9,0.7c0.5,0.5,0.7,1.2,0.7,2.3V128.5z"/>
			<path class="st0" d="M291.9,119.3c0,0.1,0,0.1-0.1,0.2s-0.1,0.1-0.2,0.1h-0.7c-0.1,0-0.1,0-0.2-0.1s-0.1-0.1-0.1-0.2v-1.2
				c0-0.1,0-0.1,0.1-0.2s0.1-0.1,0.2-0.1h0.7c0.1,0,0.1,0,0.2,0.1s0.1,0.1,0.1,0.2V119.3z M291.9,128.5c0,0.1,0,0.1-0.1,0.2
				s-0.1,0.1-0.2,0.1h-0.7c-0.1,0-0.1,0-0.2-0.1s-0.1-0.1-0.1-0.2v-7.3c0-0.1,0-0.1,0.1-0.2s0.1-0.1,0.2-0.1h0.7
				c0.1,0,0.1,0,0.2,0.1s0.1,0.1,0.1,0.2V128.5z"/>
			<path class="st0" d="M299.9,128.5c0,0.1,0,0.1-0.1,0.2s-0.1,0.1-0.2,0.1h-0.7c-0.1,0-0.1,0-0.2-0.1s-0.1-0.1-0.1-0.2v-4.7
				c0-0.7-0.1-1.2-0.4-1.5s-0.7-0.4-1.2-0.4c-0.5,0-1.2,0.2-1.9,0.6v6.1c0,0.1,0,0.1-0.1,0.2s-0.1,0.1-0.2,0.1h-0.7
				c-0.1,0-0.1,0-0.2-0.1s-0.1-0.1-0.1-0.2v-7.3c0-0.1,0-0.1,0.1-0.2s0.1-0.1,0.2-0.1h0.7c0.1,0,0.1,0,0.2,0.1s0.1,0.1,0.1,0.2v0.3
				c0.8-0.4,1.5-0.7,2.3-0.7c1.7,0,2.5,1,2.5,3V128.5z"/>
			<path class="st0" d="M308.2,121.5c0,0.2-0.1,0.2-0.3,0.3l-0.5,0.1c0.3,0.3,0.5,0.8,0.5,1.5v0.1c0,1.6-1.1,2.5-3.2,2.5
				c-0.7,0-1.2-0.1-1.7-0.3c-0.2,0.1-0.4,0.3-0.4,0.5c0,0.2,0.1,0.4,0.4,0.5l2.1,0.5c0.3,0.1,0.6,0.2,0.8,0.2
				c0.2,0.1,0.5,0.2,0.7,0.3s0.5,0.2,0.6,0.4c0.1,0.1,0.3,0.3,0.4,0.5c0.1,0.2,0.2,0.4,0.2,0.7v0.1c0,1.5-1.1,2.2-3.3,2.2
				c-1.1,0-1.9-0.2-2.5-0.6s-0.8-1-0.8-1.7v-0.1c0-0.8,0.3-1.4,0.9-1.8l-0.1,0c-0.4-0.2-0.7-0.6-0.7-1.1v0c0-0.5,0.2-0.8,0.6-1
				c-0.4-0.4-0.7-1-0.7-1.7v-0.1c0-0.7,0.2-1.3,0.7-1.8c0.5-0.5,1.3-0.7,2.5-0.7h3.2c0.1,0,0.2,0,0.2,0.1s0.1,0.1,0.1,0.2V121.5z
				 M306.7,129.4v-0.1c0-0.3-0.1-0.5-0.4-0.6c-0.2-0.2-0.7-0.3-1.4-0.5l-1.6-0.4c-0.2,0.2-0.4,0.4-0.5,0.6c-0.1,0.2-0.2,0.5-0.2,0.8
				v0.1c0,0.4,0.2,0.8,0.5,1c0.3,0.2,0.8,0.3,1.6,0.3c0.8,0,1.3-0.1,1.6-0.3C306.6,130.2,306.7,129.9,306.7,129.4z M306.6,123.5
				v-0.1c0-0.5-0.1-0.9-0.4-1.1s-0.8-0.4-1.5-0.4c-0.7,0-1.2,0.1-1.5,0.4c-0.3,0.3-0.4,0.7-0.4,1.1v0.1c0,1,0.6,1.5,1.9,1.5
				c0.7,0,1.2-0.1,1.5-0.4C306.5,124.4,306.6,124,306.6,123.5z"/>
		</g>
	</g>

</svg>
